<svg id="Layer_0_Hue_Saturation_1_Curves_1_Image" data-name="Layer 0 + Hue/Saturation 1 + Curves 1 Image" xmlns="http://www.w3.org/2000/svg" viewBox="0 0 1920 540"><defs><style>.cls-1{fill:#dfdfdf;}.cls-2{fill:#e2e2e2;}.cls-3{fill:#d7d7d7;}.cls-4{fill:#ccc;}.cls-5{fill:#e4e4e4;}.cls-6{fill:#ddd;}.cls-7{fill:#e8e8e8;}.cls-8{fill:#e9e9e9;}.cls-9{fill:#c9c9c9;}.cls-10{fill:#bebebe;}.cls-11{fill:#c7c7c7;}.cls-12{fill:#d4d4d4;}.cls-13{fill:#c1c1c1;}.cls-14{fill:#a0a0a0;}.cls-15{fill:#bcbcbc;}.cls-16{fill:#9f9f9f;}.cls-17{fill:#cacaca;}.cls-18{fill:#d8d8d8;}.cls-19{fill:#676767;}.cls-20{fill:#acacac;}.cls-21{fill:#8c8c8c;}.cls-22{fill:#b2b2b2;}.cls-23{fill:#ababab;}.cls-24{fill:#bababa;}.cls-25{fill:#a5a5a5;}.cls-26{fill:#c6c6c6;}.cls-27{fill:#7f7f7f;}.cls-28{fill:#cecece;}.cls-29{fill:#b1b1b1;}.cls-30{fill:#959595;}.cls-31{fill:#515151;}.cls-32{fill:#ececec;}.cls-33{fill:#a7a7a7;}.cls-34{fill:#a6a6a6;}.cls-35{fill:#b9b9b9;}.cls-36{fill:#b8b8b8;}.cls-37{fill:#dcdcdc;}.cls-38{fill:#989898;}.cls-39{fill:#b0b0b0;}.cls-40{fill:#c5c5c5;}.cls-41{fill:#b5b5b5;}.cls-42{fill:#a4a4a4;}.cls-43{fill:#d9d9d9;}.cls-44{fill:#818181;}.cls-45{fill:#a2a2a2;}.cls-46{fill:#8e8e8e;}.cls-47{fill:#bfbfbf;}.cls-48{fill:#999;}.cls-49{fill:#898989;}.cls-50{fill:gray;}.cls-51{fill:#747474;}.cls-52{fill:#d3d3d3;}.cls-53{fill:#696969;}.cls-54{fill:#a8a8a8;}.cls-55{fill:#363636;}.cls-56{fill:#1d1d1d;}.cls-57{fill:#5c5c5c;}.cls-58{fill:#919191;}.cls-59{fill:#535353;}.cls-60{fill:#393939;}.cls-61{fill:#aaa;}.cls-62{fill:#f0f0f0;}.cls-63{fill:#757575;}.cls-64{fill:#b3b3b3;}.cls-65{fill:#878787;}.cls-66{fill:#787878;}.cls-67{fill:#8f8f8f;}.cls-68{fill:#6a6a6a;}.cls-69{fill:#939393;}.cls-70{fill:#7c7c7c;}.cls-71{fill:#7d7d7d;}.cls-72{fill:#d5d5d5;}</style></defs><path class="cls-1" d="M909.86,245.89l-34.53,2.93,27.76-6.23L869.66,197.4l-4,2.48L817.19,217l.27.64-21.38,7.54c-5.78-7.23-11.35-20.64-20.62-24.1-10.71-4-24.68.76-40.37,2l13.65,12.54-1.66.24L721.23,203l-27.17-14.78-17.7-9.61,30.19,5.65-31.24-40.47c-4.62-6.37-8.88-13.05-13.93-19.07C618.2,73.32,635.23,39.13,676.76,4.05c4.41-1,8.84-1.86,13.21-3q32.21-8.52,64.39-17.17L737,19.78q-6.42,31-12.85,62v27.64l8.45-1.82,14.43,20.51,49-42.09,10.13-4.32,4.31,1.56L862.22,112l-56,39c-11.44-.42-23.21-2.75-34.25-.85-18.11,3.13-35.75,9-53.59,13.71l-2.5,5.92q-.9,2.1-1.81,4.2-.71,6.53-1.42,13.05l104.9,14.64q0-5.13.07-10.26l21.82-5.67,28.59,5.56,1.43.13a82.8,82.8,0,0,0,6,7.08c12.34,11.79,24.43,23.9,37.51,34.81,2.54,2.12,9.11-.6,15.82-1.29l-13,10.71Z"/><path class="cls-2" d="M544.31,71.75q-66-2.4-117.89-43.17c-.77-2.67-.72-6.17-2.44-7.89-15.75-15.81-31.82-31.31-47.79-46.9l48.22-9.46c-.65-4.45-1-6.78-1.43-9.89l6.15-4.95,14.6,2.68,10.9,3.92C456.94-56.84,459-68.17,461-79.5l2.73-25.31,41.77,8q11.6,24.39,23.2,48.77L547.5-19.11,453.1-4.27c5.77,10.39,7.57,18.19,12.44,21.64,24,16.94,48.79,32.7,73.24,49C540.89,67.75,542.48,69.93,544.31,71.75Z"/><path class="cls-3" d="M1285.18,385.62c-53.86,2-107.49,2.22-158.69-23.82,2.79,24.85,5.3,47.33,7.82,69.8q-3.74-12.06-7.46-24.13c-2-25-2.87-50.5-30-63.55l-15.59-18.83c6.46-29-10.7-65.93-34.76-74.81l-7.29-21.51c36.51-6.49,70-3.07,94.9,28.82l3,1.4c-2.92,19.22-6.27,38.39-8.42,57.7-.49,4.31,2,11.8,5.22,13.23,22.67,10.17,45.81,19.3,69,28.23,2.32.89,6-1.74,9-2.74l5,6.8c10.92,3.49,22.26,7.11,33.59,10.75q17.35,5.58,34.68,11.21C1285.17,384.65,1285.17,385.13,1285.18,385.62Z"/><path class="cls-4" d="M544.31,71.75c-1.83-1.82-3.42-4-5.53-5.4-24.45-16.28-49.26-32-73.24-49-4.87-3.45-6.67-11.25-12.44-21.64l94.4-14.84L528.68-48l6.45-12.29,40.2,11c2.94-6.05,4.6-9.46,6.26-12.86l.42,5.63,2.43,13.06L578.37-32l3.94,6.27L581-18.17c2.69,3.58,5.35,7.15,8,10.71l-21.81-7.88q-.95,2.22-1.91,4.44l68.33,48.29c-4.13,14.13-7.8,26.66-12.14,41.49l-48.29-2.81Zm-2-83.83-4.49,2.7c6.72,21.42,8,48.12,21.91,62.57,10.89,11.28,37.51,7.36,57.13,10.19.64-2.64,1.28-5.27,1.91-7.91Z"/><path class="cls-5" d="M1285.18,385.62c0-.49,0-1,0-1.45l1.49-1.43c45.94-21.55,87.33-48.48,112.14-95q15.85-18.69,31.7-37.4c54-14.73,84.38-56.78,83.26-115.31,6.08-19.26,12.17-38.52,20.62-65.28-1.37,28.22-2.35,48.57-3.54,73.24l26.32-38.06,17.29-7.21-27.34,36.05-27.5,35.89q2.17,25.91,4.36,51.82c-20.82,11.09-41.36,22.73-62.63,32.88-5.41,2.58-13.09.38-19.37.38C1412.69,356.7,1351.13,392.33,1285.18,385.62Z"/><path class="cls-6" d="M997.67,319.5l-13.1-18.45q-11.51-26.07-23-52.15,5.78-9.37,11.53-18.75h31.67l48.84,54.75,5.61,27.25q-10.77,19.46-21.55,38.91l-30.53-16.87,7-6.19Z"/><path class="cls-7" d="M1138.34,466.16c.07,4.31-.23,8.67.29,12.93s1.85,8.34,4.29,18.83H1111c-25.81-17.19-41.39-44.24-43.35-72-1.41-19.87,16-41.08,25.22-61.62,0-.07,2.44.93,3.74,1.43q9.38,25.14,18.74,50.3c6.65,19.73,13.31,39.47,20.47,60.7C1137,472,1137.66,469.07,1138.34,466.16Z"/><path class="cls-8" d="M748.74,215.6l-13.65-12.54c15.69-1.2,29.66-6,40.37-2,9.27,3.46,14.84,16.87,20.62,24.1l21.38-7.54-.27-.64,48.48-17.14,4-2.48,33.43,45.19-27.76,6.23L766,238.8,760.74,233l15.57-3Z"/><path class="cls-9" d="M1574.45,97.69l-17.29,7.21V25.77l-28.84,25.44c2.72-10.83,5.44-21.66,8.77-34.95l11.32-5,13,4.22c12.13.88,20.61-19.38,14.55-34.75l10-4q.72-26,1.45-52c.84,34.11,1.33,68.23,2.67,102.32.57,14.45,2.9,28.84,4.43,43.25l-17.38,26Z"/><path class="cls-10" d="M573.16,76.07l48.29,2.81c4.34-14.83,8-27.36,12.14-41.49L565.26-10.9q1-2.22,1.91-4.44L589-7.46c0,.47,0,.94,0,1.4-.25,3-.51,6-.84,9.94L612,17,634,31.53l40-31.86,9.92-1.56-7.08,5.94c-41.53,35.08-58.56,69.27-15.38,120.62,5,6,9.31,12.7,13.93,19.07l-44.18-26.08L628,122.15l7,10.22c-.91,5.89-1.82,11.77-3.1,20-3.87-6-6.15-9.52-10.26-15.88.3,4.91.38,6.24.47,7.57-7.84-16.15-18.37-31.6-22.75-48.64C595.22,79.46,586.44,76.34,573.16,76.07Z"/><path class="cls-11" d="M1096.65,365.72c-1.3-.5-3.71-1.5-3.74-1.43-9.2,20.54-26.63,41.75-25.22,61.62,2,27.77,17.54,54.82,43.35,72-34.08-13.92-41-48-56.29-75.88-18.84-34.28-38-68.37-57.08-102.54l16.5,8.49-7,6.19,30.53,16.87c1.91,1.46,3.69,4,5.73,4.22,15.37,1.75,30.8,3,46.2,4.48Z"/><path class="cls-12" d="M973.08,230.15q-5.76,9.38-11.53,18.75c-1.38-2.92-2.77-5.85-5.13-10.81l-16.37,3.52-30.19,4.28,5.9-3.18,13-10.71c-6.71.69-13.28,3.41-15.82,1.29-13.08-10.91-25.17-23-37.51-34.81a82.8,82.8,0,0,1-6-7.08l2.75-.29,13,.24,96,31.52-18.47,4.23.39,3.05Z"/><path class="cls-13" d="M376.19-26.21c16,15.59,32,31.09,47.79,46.9,1.72,1.72,1.67,5.22,2.44,7.89C407.09,14.5,385.31,2.71,369.31-14.48,358.71-25.86,356.4-45,350.37-60.64l8,12.12v-66.79l-7.81-1.31q-6.69,16.41-13.37,32.83c-1.47-13.49-2.94-27-3.77-34.57l21.07-15.88c.6,2.28,1.34,4.54,1.79,6.84Q366.28-76.81,376.19-26.21Z"/><path class="cls-14" d="M1519.61,169.63l27.5-35.89q12.18,13.63,24.34,27.28c-.06.94-.13,1.88-.19,2.82l-15.52,13.1Z"/><path class="cls-5" d="M1571.26,163.84c.06-.94.13-1.88.19-2.82q2.83-32.34,5.68-64.7l17.38-26C1601.59,105.17,1588.64,135.06,1571.26,163.84Z"/><path class="cls-10" d="M1519.61,169.63l36.13,7.31L1524,221.45Q1521.78,195.55,1519.61,169.63Z"/><path class="cls-15" d="M940.05,241.61l16.37-3.52c2.36,5,3.75,7.89,5.13,10.81q11.52,26.07,23,52.15Z"/><path class="cls-16" d="M1138.34,466.16c-.68,2.91-1.37,5.83-2.48,10.56-7.16-21.23-13.82-41-20.47-60.7l11.46-8.55q3.74,12.06,7.46,24.13Q1136.34,448.88,1138.34,466.16Z"/><path class="cls-17" d="M748.74,215.6,776.31,230l-15.57,3L766,238.8l-40.29-17.28,21.42-5.68Z"/><path class="cls-18" d="M622.07,144.09c-.09-1.33-.17-2.66-.47-7.57,4.11,6.36,6.39,9.88,10.26,15.88,1.28-8.26,2.19-14.14,3.1-20l5.46,8.48,19.36,35.83Z"/><path class="cls-19" d="M659.78,176.68l-19.36-35.83,35.94,37.71,17.7,9.61L684,192.68Z"/><path class="cls-20" d="M747.08,215.84l-21.42,5.68q-10-6.59-19.91-13.18L721.23,203Z"/><path class="cls-21" d="M721.23,203l-15.48,5.39L684,192.68l10.06-4.51Z"/><path class="cls-22" d="M737,19.78l17.32-35.92c1.41-2.42,2.81-4.84,4.22-7.25l7.36,2.95,175.14-8.22,37.76,44.2L964.66,45.78l-23.23-1.42,9.26-20.59L838.35,34.24l11.78,9.18-13.8,20.64,52.79-17c1.09-2.6,1.9-4.52,3-7.23l9,1.67,15.79,10Q876.54,61.67,836.1,71.78a104.45,104.45,0,0,1-12.52,2.76c-3.81.46-7.73.07-11.61.06l11.71-42.24,59.38-6.68c-22.23-1.48-44.2-.92-66.13-1.63C790.28,23.19,763.67,21.25,737,19.78Z"/><path class="cls-23" d="M812,74.6c3.88,0,7.8.4,11.61-.06a104.45,104.45,0,0,0,12.52-2.76Q876.54,61.7,917,51.56l21.8-1.19-8.24,2.5L971.73,76c13.76,7.1,27.87,20.77,41.21,20,37.23-2,74.14-10,111.17-15.67l49.58,6-.45,4.87-49.86,3.64-3,5.3-1.68-11.89-82.73,13.91.81,5h-7.39l3.46,8.7L1013,127l23.08,6.21-20.74,12.43h-9.43l5.91,8.08-4.33,0-53.2-25.69-77.52-14.48c10.62-5.23,21-11.17,31.92-15.51,17.28-6.84,35-12.6,56.18-20.11-5.51-1.17-6.82-1.72-8.12-1.68C919,77.15,881.17,78,843.4,79.39c-11,.41-21.91,2.56-32.86,3.9l-4.31-1.56Z"/><path class="cls-24" d="M812,74.6l-5.74,7.13L796.1,86.05c-13.54-.46-27.08-.7-40.6-1.46C745,84,734.63,82.76,724.19,81.81q6.43-31,12.85-62c26.63,1.47,53.24,3.41,79.89,4.27,21.93.71,43.9.15,66.13,1.63l-59.38,6.68Z"/><path class="cls-25" d="M715.92,169.75l2.5-5.92h92.81c-3.68-9.51-4.32-11.18-5-12.86l56-39,4.25,1.61L902.81,145l-87.25,15.15.63.83c.54.95,1.08,1.91,1.63,2.86-3.16,1-6.3,2.68-9.49,2.8C777.53,167.86,746.73,168.77,715.92,169.75Z"/><path class="cls-26" d="M866.47,113.59,862.22,112,810.54,83.29c11-1.34,21.87-3.49,32.86-3.9C881.17,78,919,77.15,956.75,76.15c1.3,0,2.61.51,8.12,1.68C943.68,85.34,926,91.1,908.69,97.94c-11,4.34-21.3,10.28-31.92,15.51Z"/><path class="cls-4" d="M758.58-23.39c-1.41,2.41-2.81,4.83-4.22,7.25Q722.17-7.54,690,1c-4.37,1.16-8.8,2-13.21,3l7.08-5.94,2.87-2.87L774.63-65l11.69-4.47Q772.45-46.43,758.58-23.39Z"/><path class="cls-27" d="M817.82,163.88c-.55-.95-1.09-1.91-1.63-2.86,22.17.42,44.34.61,66.49,1.38,10,.34,19.86,1.87,29.79,2.86l-9.87,10.17-74-10.06q-1.62,4.24-3.26,8.49l6.6,3,1.56,5.79c-3.26.54-6.51,1.46-9.78,1.55q-55.51,1.5-111,2.78.72-6.52,1.42-13.05H823.29q.84-2.74,1.67-5.49Z"/><path class="cls-28" d="M724.19,81.81c10.44,1,20.85,2.19,31.31,2.78,13.52.76,27.06,1,40.6,1.46l-49,42.09-14.43-20.51-8.45,1.82Z"/><path class="cls-29" d="M676.36,178.56l-35.94-37.71L635,132.37l-7-10.22,3.15-4.49,44.18,26.08,31.24,40.47Z"/><path class="cls-24" d="M712.69,187q55.53-1.37,111-2.78c3.27-.09,6.52-1,9.78-1.55l8.87,2.67-2.9.37-21.82,5.67q0,5.13-.07,10.26Z"/><path class="cls-10" d="M806.26,151c.65,1.68,1.29,3.35,5,12.86H718.42c17.84-4.71,35.48-10.58,53.59-13.71C783.05,148.22,794.82,150.55,806.26,151Z"/><path class="cls-30" d="M817.82,163.88l7.14,4.58q-.83,2.74-1.67,5.49H714.11q.92-2.1,1.81-4.2c30.81-1,61.61-1.89,92.41-3.07C811.52,166.56,814.66,164.85,817.82,163.88Z"/><path class="cls-31" d="M842.38,185.34l-8.87-2.67q-.78-2.89-1.55-5.79l62,4.29-21.69,9.94-2.75.29-1.43-.13Z"/><path class="cls-8" d="M842.38,185.34l25.69,5.93-28.59-5.56Z"/><path class="cls-13" d="M973.08,230.15h-9.87l-.39-3.05,18.47-4.23-96-31.52,92.09,2.74c32.67,1,65.34,2.64,98,2.64,20.12,0,40.25-2.53,60.37-3.93l107.73-10.21,6.55.43c8.43,11.28,13.78,25.84,21,26.8,39.29,5.27,79,7.2,119.9,10.38l15.18-41.88c.43-3.25.85-6.5,1.46-11.16l26.79-24.34L1456.64,190l51.56-50.55,5.56-4.49c1.12,58.53-29.24,100.58-83.26,115.31l-.24-1.8c-1.39-1.22-2.67-3.37-4.19-3.55q-81.37-9.84-162.79-19.35l-6.7.43L1235,227.38l-42.19.11h-54.06c-1.09,9.23-2.13,18.17-3.18,27.12-.5,1-1,2-1.51,3-24.88-31.89-58.39-35.31-94.9-28.82l-34.42,1.37Z"/><path class="cls-32" d="M1211.93,355.41c-3,1-6.73,3.63-9,2.74-23.2-8.93-46.34-18.06-69-28.23-3.19-1.43-5.71-8.92-5.22-13.23,2.15-19.31,5.5-38.48,8.42-57.7,50.76-1.44,50.76-1.44,69,41.73Z"/><path class="cls-15" d="M1211.93,355.41l-5.82-54.69,33.1,1.41,1.41.06c-.21,3.09-.42,6.18-.65,9.47l3.67,5.66c-2.52,7.36-4.93,14.42-7.87,23l96.94-35.23L1312.5,339.8l-4-2-21.81,45-1.49,1.43q-17.34-5.61-34.68-11.21c-11.33-3.64-22.67-7.26-33.59-10.75Z"/><path class="cls-33" d="M1239.21,302.13l-33.1-1.41c-18.28-43.17-18.28-43.17-69-41.73l-3-1.4c.51-1,1-2,1.51-3l57.24-27.12,42.19-.11-13,2.75-8.48,1.17-27.9,20.49,5.11,7.17h24l2.41,2.28,19,6.19L1231,277.75Z"/><path class="cls-34" d="M1089.58,359.75c-15.4-1.44-30.83-2.73-46.2-4.48-2-.23-3.82-2.76-5.73-4.22q10.78-19.46,21.55-38.91l11.42-2.85c3.75,5.58,7.18,10.69,10.6,15.8l15.59,18.83c-.77,4.06-1.55,8.11-2.44,12.82Z"/><path class="cls-35" d="M1081.22,325.09c-3.42-5.11-6.85-10.22-10.6-15.8l-11.42,2.85-5.61-27.25,4.12,2.07c-3.9-12.74-7.57-24.71-11.25-36.68C1070.52,259.16,1087.68,296.08,1081.22,325.09Z"/><path class="cls-36" d="M1089.58,359.75l4.79-3c.89-4.71,1.67-8.76,2.44-12.82,27.17,13.05,28,38.59,30,63.55L1115.39,416q-9.37-25.15-18.74-50.3Z"/><path class="cls-33" d="M1046.46,250.28c3.68,12,7.35,23.94,11.25,36.68l-4.12-2.07-48.84-54.75,34.42-1.37Z"/><path class="cls-37" d="M673.92-.33,634,31.53,612,17,589-6.06c0-.46,0-.93,0-1.4-2.67-3.56-5.33-7.13-8-10.71l1.35-7.55L578.37-32l6.07-11.44,59.22,19.92Z"/><path class="cls-35" d="M542.26-12.08l76.46,67.55c-.63,2.64-1.27,5.27-1.91,7.91-19.62-2.83-46.24,1.09-57.13-10.19C545.75,38.74,544.49,12,537.77-9.38Z"/><path class="cls-38" d="M1513.76,135l-5.56,4.49-31.81,14.16v-23q2.25-39.55,4.51-79.12l24.81,26.37,28.25-9.1q-1.26-7.23-2.52-14.51l-6.16-2.6,3-.47,28.84-25.44V104.9L1530.84,143c1.19-24.67,2.17-45,3.54-73.24C1525.93,96.48,1519.84,115.74,1513.76,135Z"/><path class="cls-39" d="M1332.71,305.08l-96.94,35.23c2.94-8.57,5.35-15.63,7.87-23l-3.67-5.66c.23-3.29.44-6.38.65-9.47l11.52,0c-.82,6.28-1.64,12.57-2.28,17.45l73.87-17.77c15.5-14.74,27.38-25.74,38.91-37.1,8-7.89,15.54-16.28,23.28-24.44l44.34,8.14.24,1.8q-15.86,18.7-31.7,37.4Z"/><path class="cls-40" d="M1332.71,305.08l66.09-17.37c-24.81,46.55-66.2,73.48-112.14,95l21.81-45,4,2Z"/><path class="cls-41" d="M1577.13,96.32q-2.84,32.36-5.68,64.7-12.17-13.64-24.34-27.28l27.34-36.05Z"/><path class="cls-42" d="M1571.46-80.76c3.11,16.09,6.21,32.17,9.27,48-.63,2.6-1.17,4.8-1.78,7.33l7,2.18-10,4V-65.16l-2.57-.08q-6,40.38-12,80.76l-13-4.22L1529.75-3.17c2-.84,4-1.67,1.56-.65,1.51-20.51,2.7-36.67,4-53.59l-7.53,1.2-13.9-4.61,7.5-17,22.78-31.94q-3.93,33.64-7.85,67.3l3.14.66q7.56-26.86,15.13-53.73Z"/><path class="cls-36" d="M1529.75-3.17l18.66,14.47-11.32,5c-3.33,13.29-6,24.12-8.77,35l-3,.47L1494,48.56l-13.17-1.35,14.24-19.86Z"/><path class="cls-43" d="M1561.37,15.52q6-40.38,12-80.76l2.57.08v45.94C1582-3.86,1573.5,16.4,1561.37,15.52Z"/><path class="cls-4" d="M589-6.06,612,17,588.19,3.88C588.52,0,588.78-3,589-6.06Z"/><path class="cls-44" d="M1529.75-3.17l-34.68,30.52-11.56-13.1,10.86.88C1496.18.06,1498-15,1500.06-32.21c-6,1.89-8.37,2.94-10.88,3.39-10.44,1.9-20.92,3.63-31.38,5.42L1481-66.56l2.7-7.23q-2.07-51.84-4.16-103.67l27.22,28.85c-24.09,36.22-15.06,74.79-8.63,115.64l15.7-27.85,13.9,4.61,7.53-1.2c-1.25,16.92-2.44,33.08-4,53.59C1533.8-4.84,1531.77-4,1529.75-3.17Z"/><path class="cls-45" d="M977.37,194.08l-92.09-2.73-13-.24,21.69-9.94q4.32-2.88,8.66-5.74l9.87-10.17L917,156.8l7.21-.1,24.55,4.37L933.8,168.2l.27,5.77h57.7l32.34,1.91.36,9.57-62,2.87c0,1,0,2,0,3Z"/><path class="cls-46" d="M978.84,15.54l-37.76-44.2L765.94-20.44,869.52-49.27l69.1,18.61,3-2.84,21.48-15.71c4.61-.9,9.65-.89,13.75-2.85,26-12.45,51.92-25.06,77.57-38.19,10.21-5.23,19.65-11.93,29.45-18l7.19,2.86q4.23,5.09,8.44,10.18c-1,2.54-3,5.15-2.84,7.59,1,12.73,2.53,25.41,3.83,37.57l-24.09,6,4,9.7-16.67-12Q1022-15.42,980.24,15.52Z"/><path class="cls-47" d="M978.84,15.54l1.4,0,86.36-4.25-63.85,31.09,5,.64-68.94,7.37L917,51.56l-15.79-10,40.24,2.83,23.23,1.42Z"/><path class="cls-23" d="M941.43,44.36l-40.24-2.83-9-1.67c-1.13,2.71-1.94,4.63-3,7.23l-52.79,17,13.8-20.64-11.78-9.18L950.69,23.77Z"/><path class="cls-48" d="M1011.82,153.67l-5.91-8.08h9.43l20.74-12.43L1013,127l19.82-11.13-3.46-8.7h7.39l-.81-5,82.73-13.91,1.68,11.89,3-5.3,49.86-3.64.45-4.87-49.58-6,13-2.91,96.33-10,6.41,3.58-45.41,17.69c33.37,8.25,58.56,13.33,83,20.91,17.06,5.29,33.06,14,49.54,21.21-5.06-1.26-10.17-3.78-15.16-3.57-55.49,2.38-111,5.5-166.44,7.69-17.58.7-35.25-.78-52.87-1.26l-31.89-2,23.35,10.79Z"/><path class="cls-49" d="M1137.1,77.44l-13,2.92C1087.08,86,1050.17,94,1012.94,96c-13.34.73-27.45-12.94-41.21-20l65.53-23.69L1021.63,50l15.66-8.13-3.8-6.14,87.71-1.59,1.56.38Z"/><path class="cls-50" d="M1011.82,153.67l72.11-11.26h.71l.71,0,7.14,25.76c-4,.5-8,1.25-12.07,1.45q-44.31,2.27-88.65,4.33h-57.7l-.27-5.77,14.92-7.13,30.13-4.31,28.64-3.14Z"/><path class="cls-51" d="M1033.49,35.7l3.8,6.14L1021.63,50l15.63,2.33L971.73,76,930.54,52.87l8.24-2.5,69-7.37Z"/><path class="cls-52" d="M866.47,113.59l10.3-.14,77.52,14.48-47.37,20.12-4.11-3Z"/><path class="cls-35" d="M906.92,148.05l47.37-20.12,53.2,25.69-28.64,3.14c.91-2,1.82-3.93,5.55-11.95L924.17,156.7l-7.21.1Z"/><path class="cls-30" d="M906.92,148.05l10,8.75-4.49,8.46c-9.93-1-19.84-2.52-29.79-2.86-22.15-.77-44.32-1-66.49-1.38l-.63-.83L902.81,145Z"/><path class="cls-53" d="M902.6,175.43q-4.33,2.87-8.66,5.74l-62-4.29-6.61-3q1.64-4.25,3.26-8.49Z"/><path class="cls-29" d="M1092.47,133.65c17.62.48,35.29,2,52.87,1.26,55.49-2.19,111-5.31,166.44-7.69,5-.21,10.1,2.31,15.16,3.57l12,7.48,12.64-6c10.37-5.34,20.62-10.92,31.12-16,35.79-17.22,73.75-31.7,89.47-73.42L1464.84,10q6.6,15.37,13.18,30.74c-4.07,21-4.31,41.93-4,62.79.15,9.06,1.52,18.09,2.33,27.14v23l31.81-14.16L1456.64,190l-22.33-47.22-26.79,24.34c-.61,4.66-1,7.91-1.46,11.16l-15.93-8.62-62-14.3-84.59-11.59L1181.62,141,1150,142.06c-1.88-1.36-3.67-3.73-5.66-3.93C1127.07,136.42,1109.76,135.09,1092.47,133.65Z"/><path class="cls-54" d="M1390.13,169.7l15.93,8.62-15.18,41.88c-40.87-3.18-80.61-5.11-119.9-10.38-7.17-1-12.52-15.52-21-26.8l-6.55-.43,13-1.57,2.81.11c29.55-1.71,59.13-3,88.64-5.32C1362.07,174.72,1376.07,171.8,1390.13,169.7Z"/><path class="cls-30" d="M991.77,174q44.33-2.13,88.65-4.33c4-.2,8-.95,12.07-1.45l142.28-23.05c-5.43,2.45-10.73,5.27-16.31,7.31-36.37,13.28-72.81,26.39-115.93,42l33.22-1.64c-20.12,1.4-40.25,3.94-60.37,3.93-32.67,0-65.34-1.68-98-2.64l-14.85-2.81c0-1,0-2,0-3l62-2.87-.36-9.57Z"/><path class="cls-44" d="M1135.75,192.8l-33.22,1.64c43.12-15.6,79.56-28.71,115.93-42,5.58-2,10.88-4.86,16.31-7.31-3-.47-6-1.17-9-1.38-14.69-1-29.4-1.87-44.1-2.79l61.93,2.84L1256.48,181l-13,1.57Z"/><path class="cls-55" d="M1430.26,248.51l-44.34-8.14-18.7,2.71-51.81,7.2L1255,254.74l-3.13-5.9c.16-1,.32-1.92.47-2.88,13.72-3.86,34.13,10.38,41.73-18l-30.77-2.36q81.4,9.62,162.79,19.35C1427.59,245.14,1428.87,247.29,1430.26,248.51Z"/><path class="cls-49" d="M1192.82,227.49l-57.24,27.12c1.05-9,2.09-17.89,3.18-27.12Z"/><path class="cls-56" d="M1263.28,225.61l30.77,2.36c-7.6,28.37-28,14.13-41.73,18,.31-2.3.62-4.61.92-6.91q1.66-6.51,3.34-13Z"/><path class="cls-57" d="M1256.58,226l-3.34,13L1222,230.13l13-2.75Z"/><path class="cls-58" d="M1251.85,248.84l3.13,5.9,5.79,47.4-8.63.09-11.52,0-1.41-.06L1231,277.75l5.22-10.32-19-6.19-2.41-2.28c3.5-.51,7.06-.79,10.5-1.58,7.56-1.73,15-3.72,22.57-5.6Z"/><path class="cls-51" d="M1247.81,251.78c-7.52,1.88-15,3.87-22.57,5.6-3.44.79-7,1.07-10.5,1.58h-24l-5.11-7.17,27.9-20.48Z"/><path class="cls-13" d="M1247.81,251.78l-34.32-20.47,8.48-1.18,31.27,8.92c-.3,2.3-.61,4.61-.92,6.91-.15,1-.31,1.92-.47,2.88Z"/><path class="cls-37" d="M1476.39,130.64c-.81-9-2.18-18.08-2.33-27.14-.35-20.86-.11-41.74,4-62.79q-6.58-15.36-13.18-30.74l-8.51-23.21,27.18,27.49,11.56,13.1-14.24,19.86c0,1.44.05,2.87.07,4.31Q1478.65,91.07,1476.39,130.64Z"/><path class="cls-59" d="M1480.9,51.52c0-1.44,0-2.87-.07-4.31L1494,48.56l-5.42,1.14L1534,68.79l-28.25,9.1Z"/><path class="cls-60" d="M1534,68.79,1488.58,49.7l5.42-1.14,31.28,3.12,6.16,2.6Q1532.7,61.57,1534,68.79Z"/><path class="cls-61" d="M1252.14,302.23l8.63-.09,2.83.13,62.93-3.9L1321,286.08q19.79-20.25,39.57-40.55c2.24-.85,4.47-1.65,6.7-2.45l18.7-2.71c-7.74,8.16-15.27,16.55-23.28,24.44-11.53,11.36-23.41,22.36-38.91,37.1l-73.87,17.77C1250.5,314.8,1251.32,308.51,1252.14,302.23Z"/><path class="cls-48" d="M1483.51,14.25l-27.18-27.49-4.41-3,5.88-7.16c10.46-1.79,20.94-3.52,31.38-5.42,2.51-.45,4.9-1.5,10.88-3.39C1498-15,1496.18.06,1494.37,15.13Z"/><path class="cls-62" d="M1440.58-21.88,1481-66.56,1457.8-23.4l-5.88,7.16-64.81,70.41.09-7.1,48.89-63.25Z"/><path class="cls-23" d="M924.17,156.7l60.23-11.89c-3.73,8-4.64,10-5.55,11.95l-30.13,4.31Z"/><path class="cls-29" d="M1066.6,11.27l-86.36,4.25q41.71-30.94,83.45-61.87c4.08,4.7,7.66,10,12.36,14,16.31,13.8,33,27.13,49.58,40.65l-13,1.45Z"/><path class="cls-45" d="M1125.63,8.29c-16.56-13.52-33.27-26.85-49.58-40.65-4.7-4-8.28-9.29-12.36-14l16.67,12-4-9.7,24.09-6c-1.3-12.16-2.85-24.84-3.83-37.57-.19-2.44,1.84-5,2.84-7.59l52.19,52.89c-3.47,6.27-7.12,12.44-10.36,18.81C1135.93-12.95,1130.84-2.31,1125.63,8.29Z"/><path class="cls-12" d="M1066.6,11.27l46-1.53,18.13.81L1121.2,34.1l-87.71,1.6L1007.73,43l-5-.64Z"/><path class="cls-21" d="M1351.54,132.27l-12.64,6-12-7.48c-16.48-7.19-32.48-15.92-49.54-21.21-24.41-7.58-49.6-12.66-83-20.91L1239.84,71l-6.41-3.58,4.29-1.45,7.26-2.84c.83,2.65,1.09,7.19,2.58,7.65,13.46,4.09,27,9.3,40.79,10.41,9.52.77,19.52-4.41,29.38-7,1.55,3.35,2.49,5.36,3.44,7.42l9.32-5.77-4.68,13.53,8.26,3.61-14.33,12.67,1.54,1.86,48.88-31.25c-3.05,5.68-6.42,11.23-9.08,17.09-6.3,13.82-12.26,27.79-18.36,41.7Z"/><path class="cls-63" d="M1237.72,66l-4.29,1.45-96.33,10-14.34-43,7.09-.14c1.57,1.61,2.91,4.24,4.76,4.67,27.64,6.48,55.27,13,83.12,18.42,3.08.59,11.29-7.39,10.7-8.94-2.88-7.52-7.94-14.2-12.22-21.19l17.13-.34Z"/><path class="cls-64" d="M1092.47,133.65c17.29,1.44,34.6,2.77,51.87,4.48,2,.2,3.78,2.57,5.66,3.93l-64.65.37-.71,0h-.71l-23.35-10.79Z"/><path class="cls-35" d="M1233.33,27l-17.13.34-86.35,7-7.09.14-1.56-.38,9.56-23.56-18.13-.81,13-1.45c5.21-10.6,10.3-21.24,15.66-31.76,3.24-6.37,6.89-12.54,10.36-18.81l2.68.21c43.31,10.47,83.85,38.35,131.73,20.32,8.8-3.31,18.62-3.87,28-5.7L1285.24,1.18Z"/><path class="cls-53" d="M1085.35,142.43l64.65-.37,31.62-1.09c14.7.92,29.41,1.79,44.1,2.79,3,.21,6,.91,9,1.38l-142.28,23.05Z"/><path class="cls-65" d="M1351.54,132.27l-8.82,2.8,82.39-86.3L1438,2l4.12.43c.54,4.44,1.09,8.88,1.83,14.8l3.47,2.26V42.88h24.71c-15.72,41.72-53.68,56.2-89.47,73.42C1372.16,121.35,1361.91,126.93,1351.54,132.27Z"/><path class="cls-66" d="M1472.13,42.88h-24.71V19.47L1444,17.21c-.74-5.92-1.29-10.36-1.83-14.8L1438,2l-12.89,46.79-82.39,86.3c6.1-13.91,12.06-27.88,18.36-41.7,2.66-5.86,6-11.41,9.08-17.09l16.95-22.11,64.81-70.41,4.41,3L1464.84,10Z"/><path class="cls-67" d="M1390.13,169.7c-14.06,2.1-28.06,5-42.2,6.11-29.51,2.29-59.09,3.61-88.64,5.32l68.86-25.73Z"/><path class="cls-68" d="M1328.15,155.4l-68.86,25.73-2.81-.11-12.93-37.21Z"/><path class="cls-69" d="M1367.22,243.08c-2.23.8-4.46,1.6-6.7,2.45q-19.79,20.31-39.57,40.55l5.58,12.29-62.93,3.9c6.9-5.19,13.64-10.62,20.74-15.54,13.62-9.42,38-9.48,31.07-36.45Z"/><path class="cls-70" d="M1315.41,250.28c6.95,27-17.45,27-31.07,36.45-7.1,4.92-13.84,10.35-20.74,15.54l-2.83-.13-5.79-47.4Z"/><path class="cls-71" d="M1440.58-21.88l-4.49,5.7-84.7,50.45-26.16-52.2L1389-99.61q6.33-7.24,12.65-14.48l-3.76,64.71,9.5-10,9.45,1.34c1.72,3.53,3.42,7,5.45,11.15l-2.74,6.53,15.56,14.4,12.51-13.28Z"/><path class="cls-12" d="M1389-99.61l-63.79,81.68-40,19.11L1314-27.45l8.58-8.94q29.51-29.19,59.08-58.32C1383.75-96.73,1386.56-98,1389-99.61Z"/><path class="cls-48" d="M1351.39,34.27l84.7-50.45L1387.2,47.07,1334.07,93l-8.26-3.61,4.68-13.53-9.32,5.77c-1-2.06-1.89-4.07-3.44-7.42-9.86,2.55-19.86,7.73-29.38,7-13.81-1.11-27.33-6.32-40.79-10.41-1.49-.46-1.75-5-2.58-7.65Z"/><path class="cls-72" d="M1334.07,93l53.13-45.93-.09,7.1-16.95,22.11-48.88,31.25-1.54-1.86Z"/><path class="cls-65" d="M1351.39,34.27,1245,63.11,1237.72,66l-4.38-39,51.9-25.79,40-19.11Z"/><path class="cls-65" d="M1129.85,34.35l86.35-7c4.29,7,9.35,13.67,12.23,21.19.59,1.55-7.62,9.53-10.7,8.94-27.85-5.38-55.48-11.94-83.12-18.42C1132.76,38.59,1131.42,36,1129.85,34.35Z"/></svg>