<svg id="Layer_0_Hue_Saturation_1_Curves_1_Image" data-name="Layer 0 + Hue/Saturation 1 + Curves 1 Image" xmlns="http://www.w3.org/2000/svg" viewBox="0 0 1920 540"><defs><style>.cls-1{fill:#3a3a3a;}.cls-2{fill:#bbb;}.cls-3{fill:#424242;}.cls-4{fill:#e2e2e2;}.cls-5{fill:#535353;}.cls-6{fill:#7a7a7a;}.cls-7{fill:#383838;}.cls-8{fill:#c9c9c9;}.cls-9{fill:#767676;}.cls-10{fill:#c1c1c1;}.cls-11{fill:#818181;}.cls-12{fill:#252525;}.cls-13{fill:#474747;}.cls-14{fill:#dbdbdb;}.cls-15{fill:#949494;}.cls-16{fill:#6b6b6b;}.cls-17{fill:#979797;}.cls-18{fill:#636363;}.cls-19{fill:#aeaeae;}.cls-20{fill:#737373;}.cls-21{fill:#adadad;}.cls-22{fill:#bfbfbf;}.cls-23{fill:#525252;}.cls-24{fill:#9a9a9a;}.cls-25{fill:#b1b1b1;}.cls-26{fill:#4f4f4f;}.cls-27{fill:#6a6a6a;}.cls-28{fill:#868686;}.cls-29{fill:#656565;}.cls-30{fill:#575757;}.cls-31{fill:#505050;}.cls-32{fill:#909090;}.cls-33{fill:#e0e0e0;}.cls-34{fill:#999;}.cls-35{fill:#d2d2d2;}.cls-36{fill:#787878;}.cls-37{fill:#8e8e8e;}.cls-38{fill:#666;}.cls-39{fill:#616161;}.cls-40{fill:#ccc;}.cls-41{fill:#353535;}.cls-42{fill:#696969;}.cls-43{fill:#7c7c7c;}.cls-44{fill:#ababab;}.cls-45{fill:#7d7d7d;}.cls-46{fill:#707070;}.cls-47{fill:#b6b6b6;}.cls-48{fill:#d0d0d0;}.cls-49{fill:#454545;}.cls-50{fill:#5c5c5c;}.cls-51{fill:#595959;}.cls-52{fill:#a4a4a4;}.cls-53{fill:#5f5f5f;}.cls-54{fill:#bdbdbd;}.cls-55{fill:#d6d6d6;}.cls-56{fill:#494949;}.cls-57{fill:#b5b5b5;}.cls-58{fill:#c3c3c3;}.cls-59{fill:#858585;}.cls-60{fill:#9d9d9d;}.cls-61{fill:#888;}.cls-62{fill:#d1d1d1;}.cls-63{fill:#3b3b3b;}.cls-64{fill:#bcbcbc;}.cls-65{fill:#848484;}.cls-66{fill:#b0b0b0;}.cls-67{fill:#9c9c9c;}.cls-68{fill:#a6a6a6;}.cls-69{fill:#565656;}.cls-70{fill:#b8b8b8;}.cls-71{fill:#757575;}.cls-72{fill:#ddd;}.cls-73{fill:#c8c8c8;}.cls-74{fill:#bababa;}.cls-75{fill:#838383;}.cls-76{fill:#cecece;}.cls-77{fill:#929292;}.cls-78{fill:#676767;}.cls-79{fill:#484848;}.cls-80{fill:#afafaf;}.cls-81{fill:#4e4e4e;}.cls-82{fill:#8a8a8a;}.cls-83{fill:#6d6d6d;}.cls-84{fill:#e1e1e1;}.cls-85{fill:#969696;}.cls-86{fill:#444;}.cls-87{fill:#828282;}.cls-88{fill:#9f9f9f;}.cls-89{fill:#5b5b5b;}.cls-90{fill:#9e9e9e;}.cls-91{fill:#272727;}.cls-92{fill:#606060;}.cls-93{fill:#3e3e3e;}.cls-94{fill:#9b9b9b;}.cls-95{fill:#c4c4c4;}.cls-96{fill:#5a5a5a;}.cls-97{fill:#dfdfdf;}.cls-98{fill:#939393;}.cls-99{fill:#777;}.cls-100{fill:#a2a2a2;}.cls-101{fill:#c7c7c7;}.cls-102{fill:#dedede;}.cls-103{fill:#2e2e2e;}.cls-104{fill:#d9d9d9;}.cls-105{fill:#333;}.cls-106{fill:#434343;}.cls-107{fill:#acacac;}.cls-108{fill:#6e6e6e;}.cls-109{fill:#686868;}.cls-110{fill:#d4d4d4;}.cls-111{fill:#7f7f7f;}.cls-112{fill:#8b8b8b;}.cls-113{fill:#4b4b4b;}.cls-114{fill:#202020;}.cls-115{fill:#3c3c3c;}.cls-116{fill:#7e7e7e;}.cls-117{fill:#747474;}.cls-118{fill:#dadada;}.cls-119{fill:#b7b7b7;}.cls-120{fill:#464646;}</style></defs><path class="cls-1" d="M824.86,64.93l24.51-15.61H983.15q44,11.61,88,23.29c1.16.31,2,1.68,3,2.56L1040.7,68l-74-5.34c10.55,9.85,16.57,14.73,21.69,20.43,8.64,9.61,16.7,19.73,25,29.64-24.63,24.63-19.67,54.84-16,84.81l-3,5.81c-3.29,3.4-6.73,6.67-9.86,10.22q-26,29.46-51.92,59c3-13.81,5.13-27.86,9.13-41.36,14.74-49.87,18-100.47,11.3-151.88L941.26,68.18,858.85,50c13.89,20.55,22.24,32.9,30.6,45.25l-6.9-.1L773,67.48c.45-1.94.89-3.89,1.33-5.83Z"/><path class="cls-2" d="M321.46,475.63l21.87-23.76-15.75-32.2c1.9-3.48,3.68-6.77,5.47-10.06l8,6.81.88-4.92,21.18-22.3c-5.22,9.63-13.54,18.88-14.81,29-1.38,11,3.81,22.83,6.14,34.29q-6.83,5.88-13.66,11.75l2.19,2.6,18.67-11.41q-3.58,10.1-7.18,20.18l-21.07,15.88c.83,7.59,2.3,21.08,3.77,34.57q1.47,5.75,2.95,11.48c-5.3-9.6-11-19-15.72-28.9-2-4.26-2-9.5-3-14.29Z"/><path class="cls-3" d="M1165.58,73.87,1178.86,81q-2.22,7.24-4.43,14.49l-7.44.2c-29.16,24.58-37.1,57-34.19,93.33q.77,8.78,1.51,17.56c-17.4,37-42.41,71.78-33,116.37l-.45,47.5-35.06-15.91c2.38-20.8,4.94-41.8,7.16-62.85,3.29-31.31,6.34-62.65,9.49-94q-5.06-30.27-10.13-60.52l27.46,31.11V102.59c-2.7-1.46-5.26-3.7-8.13-4.25-18-3.42-36-6.46-56.87-10.14l54.85-12.66,4.11-1.83,8.12,1.24v22.6l13-16c-.71-2.58-1.25-4.53-2.11-7.67Z"/><path class="cls-4" d="M544.31,681.6q-66-2.39-117.89-43.17c-.77-2.67-.72-6.17-2.44-7.89-15.75-15.81-31.82-31.31-47.79-46.9l48.22-9.46c-.65-4.45-1-6.78-1.43-9.88l6.15-5,14.6,2.68,10.9,3.92C456.94,553,459,541.68,461,530.35l2.73-25.3,41.77,8q11.6,24.39,23.2,48.77l18.82,28.88-94.4,14.84c5.77,10.39,7.57,18.2,12.44,21.64,24,16.94,48.79,32.7,73.24,49C540.89,677.61,542.48,679.78,544.31,681.6Z"/><path class="cls-5" d="M1410.27,239.47c20,20.14,42.21,38.54,59.14,61,13.08,17.32,19.49,39.67,28.87,59.79l-13.11,10.28q-3.68,13.67-7.36,27.32l-1.14,1.56-5.76-1.57L1446,342.29l-9.7-.63-9.31-.84c-6.11,15.35-12.11,30.4-18.1,45.46q-14.36-25.9-28.69-51.82L1353,311.75l40-3.43,30.57-19.22-10.29-6.53c-1-1.92-1.58-4.35-3.1-5.67-15.21-13.11-30.57-26-45.89-39L1377.15,215c.39,0,.77-.09,1.16-.11Z"/><path class="cls-6" d="M1072.32,137.14q5.07,30.26,10.13,60.52l-66.19,78.72c-1.83-7.31-3-12-4.2-16.75,3.8-15,5.06-31.34,11.94-44.78,13.44-26.28,30-51,45.31-76.3l-54.55-24.5c0-.49,0-1-.08-1.46,3.66-6.92,7.09-14,11.05-20.73,4.75-8.1,10-15.92,15-23.86l33.51,7.17,15.42.37L1034.78,88.2c20.87,3.68,38.9,6.72,56.87,10.14,2.87.55,5.43,2.79,8.13,4.25Q1086,119.85,1072.32,137.14Z"/><path class="cls-7" d="M1229.13,105.62c49.7,19.09,103.29,30.92,139.68,74.87,4.08,4.92,7.77,10.17,11.65,15.27-6.9-2.18-14.25-3.47-20.59-6.73-15-7.72-28.82-12.29-38.72,7l-2.66-1-83.59-27.59-11.28-28.22,39.78,10.24-7.51,8.73,23.47,7.32,5.05-4.61-7.11-5.39c.26-3.93.5-7.48.74-11l27.49,5.77,1.69-5.55-60.83-20.4-17.14-1.39Z"/><path class="cls-8" d="M1574.45,707.54l-17.29,7.21V635.62l-28.84,25.44c2.72-10.83,5.44-21.66,8.77-34.94l11.32-5,13,4.23c12.13.87,20.61-19.39,14.55-34.75l10-4q.72-26,1.45-52c.84,34.1,1.33,68.23,2.67,102.31.57,14.46,2.9,28.84,4.43,43.25q-8.68,13-17.38,26Z"/><path class="cls-9" d="M1470.91,397.81l5.76,1.57,57.41,61.84,10.11,5.76,12,23.89-3.55-39.68,23.07,56.2c-.43,1.52-.87,3-1.35,4.72l-7.47-.9c1.62,6.37,3.08,12.13,4.54,17.88l-16.93-14.78q-5.22-7.11-10.42-14.23L1521.33,532c-4.18-21.55-8.36-43.1-13.33-68.75l33.39,30.81c-9.91-19.54-17.34-34.2-26.82-52.88-3.85,9.86-5.83,14.95-7.81,20l-27.22-28.85q-1.2-6.67-2.39-13.35l-1.75.18V446.8q-3.75-25.18-7.49-50.39Zm31.61,47.7,5.24-4-23.45-28.78-3.24,2.44Z"/><path class="cls-10" d="M376.19,583.64c16,15.59,32,31.09,47.79,46.9,1.72,1.72,1.67,5.22,2.44,7.89-19.33-14.08-41.11-25.87-57.11-43.06-10.6-11.38-12.91-30.5-18.94-46.15,1.51,2.27,3,4.55,8,12.11V494.55l-7.81-1.32q-6.69,16.41-13.37,32.83c-1.47-13.49-2.94-27-3.77-34.57l21.07-15.88c.6,2.28,1.34,4.54,1.79,6.85Q366.28,533,376.19,583.64Z"/><path class="cls-11" d="M1544.19,467l-10.11-5.76-31-43.66-.63.1-24.59-19.84q3.68-13.65,7.36-27.32c9.94,9.52,19.65,19.3,29.9,28.46,5.44,4.85,11.82,8.65,17.78,12.92q6.44,12.36,12.86,24.72Q1545,451.8,1544.19,467Z"/><path class="cls-12" d="M1229.13,105.62l.12,17.21h-46.54l19.44-21.23-22-4.73-5.77-1.43q2.21-7.25,4.43-14.49Z"/><path class="cls-13" d="M1321.15,196c9.9-19.25,23.71-14.68,38.72-7,6.34,3.26,13.69,4.55,20.59,6.73a2.47,2.47,0,0,1,1,.63q-1.6,9.26-3.2,18.51c-.39,0-.77.06-1.16.11Z"/><path class="cls-14" d="M337.2,526.06q6.68-16.41,13.37-32.83l7.81,1.32v66.78c-5-7.56-6.5-9.84-8-12.11q-5.1-5.85-10.22-11.68Q338.68,531.8,337.2,526.06Z"/><path class="cls-15" d="M1571.46,529.09c-1.46-5.75-2.92-11.51-4.54-17.88l7.47.9c.48-1.69.92-3.2,1.35-4.72l11.67,27.19q-.72,26-1.46,52l-7-2.19c.61-2.53,1.15-4.72,1.78-7.32C1577.67,561.27,1574.57,545.18,1571.46,529.09Z"/><path class="cls-16" d="M1532.85,411.88c-6-4.27-12.34-8.07-17.78-12.92-10.25-9.16-20-18.94-29.9-28.46l13.11-10.28Z"/><path class="cls-17" d="M1378.31,214.9q1.61-9.26,3.2-18.51l28.76,43.08Z"/><path class="cls-18" d="M1165.58,73.87h-52.84c.86,3.14,1.4,5.09,2.11,7.67l-13,16V75l-8.12-1.24Z"/><path class="cls-19" d="M1544.19,467q.76-15.19,1.52-30.38l7,14.59,3.55,39.68Z"/><path class="cls-20" d="M675.29,89.62c23.44-8.31,46.82-16.81,70.39-24.78,5.47-1.85,11.57-1.86,17.37-2.71L749,67l20.27,14.28,15.41,19.91L605.51,185.5,620.18,195l12-3.05-33.24,16-14.08,9.89c-.94,1-1.88,2-2.83,3l-41.88-7.26-.06-1.48.1.06,80.38-59.83-11.43-.84,18.43-7.12a99.1,99.1,0,0,0,9-5.14c18.27-13.07,36.45-26.26,54.66-39.41L750,82.54,749.62,81,676.75,92.69C676.26,91.66,675.78,90.64,675.29,89.62Z"/><path class="cls-21" d="M540.07,212.05l.06,1.48c-4.27,7.69-9.1,15.13-12.69,23.13-5.28,11.72-9.67,23.84-14.44,35.79l-16.11,8.72-2.66-1.24,10.67-10.06-66.38,17c.35-3.79.54-5.78,1.27-13.75-15.34,13.1-31,21.26-38.64,34.16-13,21.82-20.88,46.65-30.91,70.21l-7.09,11.7L342,411.5l-.88,4.92-8-6.81c24.61-40.23,48-81.32,74.3-120.38,15.89-23.57,36.41-44,54.85-65.86l-10.64,27.75Z"/><path class="cls-22" d="M540.07,212.05l-88.51,39.07,10.64-27.75,89.3-63.3q-5.67,26-11.33,52Z"/><path class="cls-23" d="M784.64,101.17,769.23,81.26,749,67l14.09-4.85,61.81,2.8-50.49-3.28c-.44,1.94-.88,3.89-1.33,5.83L882.55,95.15l-2.94.42-10-.09L786,101.36Z"/><path class="cls-24" d="M540.17,212.11q5.67-26,11.33-52l8.38-2.94,49.24-5.69,11.43.84Z"/><path class="cls-25" d="M675.29,89.62c.49,1,1,2,1.46,3.07L672.16,96l19,3.78c-18.21,13.15-36.39,26.34-54.66,39.41a100.31,100.31,0,0,1-9,5.14l8.82-13.51-50.32,16.37Z"/><path class="cls-26" d="M586.06,147.18l50.32-16.37-8.82,13.51-18.44,7.12-49.24,5.69Z"/><path class="cls-27" d="M953.1,79.37c6.73,51.41,3.44,102-11.3,151.88-4,13.5-6.14,27.55-9.12,41.35l-2.79,5.74-48.84-53.27,30.05-57.7L917,153Z"/><path class="cls-28" d="M953.1,79.37,917,153q-13.54-28-27.11-56l-10.26-1.46,2.94-.42,6.9.1c2.4-1,4.89-1.86,7.18-3.09,14.9-7.94,29.76-16,44.63-24Z"/><path class="cls-27" d="M1014.68,112.59c0,.49.05,1,.08,1.46L1026,154.66,1013.14,209l-15.69-11.48c-3.7-30-8.66-60.18,16-84.81C1013.84,112.69,1014.26,112.65,1014.68,112.59Z"/><path class="cls-29" d="M941.26,68.18c-14.87,8-29.73,16-44.63,24-2.29,1.23-4.78,2.07-7.18,3.09-8.36-12.35-16.71-24.7-30.6-45.25Z"/><path class="cls-30" d="M1014.68,112.59c-.42.06-.84.1-1.26.14-8.31-9.91-16.37-20-25-29.64-5.12-5.7-11.14-10.58-21.69-20.43l74,5.34c-5,7.94-10.22,15.76-15,23.86C1021.77,98.6,1018.34,105.67,1014.68,112.59Z"/><path class="cls-31" d="M929.89,278.34l2.79-5.74q25.94-29.52,51.91-59c3.13-3.55,6.57-6.82,9.86-10.22l-4,11.75-21.9,56L932.72,282.7l-1.36-.06Z"/><path class="cls-32" d="M990.46,215.1l4-11.75,3-5.81L1013.14,209,981,263.75C984.85,243.81,987.66,229.46,990.46,215.1Z"/><path class="cls-14" d="M376.19,583.64q-9.94-50.6-19.9-101.18c-.45-2.31-1.19-4.57-1.79-6.85q3.58-10.08,7.18-20.18l.1.07,72.06,22.88,8.46-7.06,43.07-33.16,6.9-1.59-22.2,61.92,35.63,8.9c-.07,1.9-.15,3.8-.22,5.7l-41.77-8c-1.07,9.89-1.9,17.6-2.73,25.3-.09-4.21,1.37-9.4-.56-12.46-7.89-12.51-16.81-24.36-25.36-36.46l-43.47,48.33L425,549.11,443.73,562l-14.6-2.68-6.15,5c.45,3.1.78,5.43,1.43,9.88Z"/><path class="cls-33" d="M363.15,389.2l7.09-11.7,20.18,40.3-35.94,34.69C352.15,441,347,429.2,348.34,418.2,349.61,408.08,357.93,398.83,363.15,389.2Z"/><path class="cls-34" d="M354.48,452.49l35.94-34.69,29.08,15.67,3,1.52-3.41,4.88-5.3-6.37-52,22-.1-.07L343,466.84l-2.19-2.6Q347.66,458.38,354.48,452.49Z"/><path class="cls-32" d="M1100.86,370.4l.45-47.5v49.88l26.94-57.22q12.21,28.29,24.4,56.59c-1.23,16.58-2.47,33.16-3.41,45.87l55.91-24.84c.07.15.14.29.22.44l71.23-30.29,5.69.21,7.32,97.58q.06,8.1.13,16.2c-.08.88-.17,1.76-.25,2.64l-41.41,33.41-4.16-10.23,18.39-6.63-1.29-3.84-17.66,4.51c.12-1.83.24-3.66.37-5.49,11.37-39.45,22.75-78.9,36.12-125.29-4.63,7.5-5.32,8.72-6.1,9.88q-23,33.89-46,67.75l-82-17.41L1101,428q.16-23.75.32-47.47c1.18,13.95,2.36,27.91,3.7,43.82l47.49-53.75h-50.93Z"/><path class="cls-27" d="M1101.27,380.5q-.15,23.73-.32,47.47l-44.39-7.23q.7-9.27,1.42-18.55,3.51-24.45,7-48.89l-54.45-64.93,0-4.2q.75-12.27,1.52-24.54c1.18,4.72,2.37,9.44,4.2,16.75l66.19-78.72c-3.15,31.33-6.2,62.67-9.49,94-2.22,21.05-4.78,42.05-7.16,62.85l35.06,15.91.67.17C1101.44,373.88,1101.36,377.19,1101.27,380.5Z"/><path class="cls-35" d="M1128.25,315.56l-26.94,57.22V322.9c-9.41-44.59,15.6-79.4,33-116.37q8,17.91,15.94,35.83l-14.82,50.16Q1131.84,304,1128.25,315.56Z"/><path class="cls-36" d="M1150.25,242.36q-8-17.93-15.94-35.83-.75-8.79-1.51-17.56l2.82-2.76,29.11-34.69,2.52.08L1206,186.08l-66.79,4.08.39,3.26h46.52l-34.75,48.88Z"/><path class="cls-37" d="M1135.62,186.21,1132.8,189c-2.91-36.37,5-68.75,34.19-93.33l-4,31.54Q1149.29,156.69,1135.62,186.21Z"/><path class="cls-38" d="M1072.32,137.14q13.73-17.28,27.46-34.55v65.66Z"/><path class="cls-39" d="M1163,127.18l4-31.54,7.44-.2,5.77,1.43q-3.59,12.28-7.18,24.59Z"/><path class="cls-40" d="M435.06,481.43c8.55,12.1,17.47,23.95,25.36,36.46,1.93,3.06.47,8.25.56,12.46-2,11.33-4,22.66-6.35,35.59L443.73,562,425,549.11c4.88-12.46,11.68-24.56,14-37.48C440.72,502.11,436.59,491.53,435.06,481.43Z"/><path class="cls-21" d="M505.48,513.09c.07-1.9.15-3.8.22-5.7l1.39,0,9,1.33c4.68,12.45,9.48,25.24,15.59,41.49l4.2-11.07,35.78,4.18c1-4.22,2.06-8.31,4-15.95l6.13,10.22c.11,1,.21,1.89.32,2.83l-.43,7.34c-1.66,3.4-3.32,6.81-6.26,12.86l-40.2-11-6.45,12.28Q517.09,537.49,505.48,513.09Z"/><path class="cls-41" d="M1364.32,237.89c15.32,13,30.68,25.9,45.89,39,1.52,1.32,2.09,3.75,3.1,5.67l-61.86-26v-.15l-43.15-15.33,34.62,48.93-4.47,25.71-41.68-43.32c-17-22.74-34-45.49-50.4-67.49l-55.13-13.9,16.32-4.8,93.71,31.47Z"/><path class="cls-42" d="M1380.18,334.46q14.34,25.91,28.69,51.82c0,.49.05,1,.08,1.46-11.82,52.18,32.75,73,57.12,101.4l-19.29,14.67q-.09-1.2-.6-7.78l-12.74-4.59q-13.05-23.7-26.11-47.4-1.49-2.31-3-4.62l-64.4-4c.88-2.69,1.6-5.43,2.65-8.05Q1361.26,381,1380,334.68Z"/><path class="cls-43" d="M1409,387.74c0-.48-.06-1-.08-1.46,6-15.06,12-30.11,18.1-45.46l9.31.84c-.71,2.23-1.42,4.46-1.81,5.67l33.44,49.08q3.73,25.2,7.49,50.39l2.61,49L1428.42,404c-5.68.55-6.58-1.75-8.07-3.56a31.74,31.74,0,0,0-4.78-4.13l-1.2-9Z"/><path class="cls-44" d="M1364.32,237.89l-63-20.17L1318.49,195l2.66,1,56,19Z"/><path class="cls-34" d="M1393,308.32l-40,3.43c-.46-.08-.91-.15-1.38-.2l-3.12-8.75a65.52,65.52,0,0,0,1.4-8.25c.62-12.7,1-25.4,1.54-38.1v.15c5.32,6.11,10.87,12,15.91,18.37C1376.08,286,1384.49,297.19,1393,308.32Z"/><path class="cls-45" d="M1393,308.32c-8.54-11.13-17-22.37-25.67-33.35-5-6.33-10.59-12.26-15.91-18.37l61.86,26,10.29,6.53Z"/><path class="cls-42" d="M1351.63,311.55c.47.05.92.12,1.38.2l27.17,22.71-.19.22-54.45,20,1.32-3.14Z"/><path class="cls-46" d="M1467.91,396.41l-33.44-49.08c.39-1.21,1.1-3.44,1.81-5.67l9.7.63,24.93,55.52Z"/><path class="cls-43" d="M1477.81,397.82l24.59,19.84.63-.1,31,43.66-57.41-61.84Z"/><path class="cls-47" d="M1012.06,259.63q-.76,12.27-1.52,24.54V234.36c-12.91,14.45-25.42,24.4-32.15,37.36-4.85,9.33-2,22.67-2.58,34.23q-3.63-17.44-7.25-34.88l21.9-56c-2.8,14.36-5.61,28.71-9.5,48.65L1013.14,209,1026,154.66q21.66-8.07,43.33-16.11c-15.29,25.34-31.87,50-45.31,76.3C1017.12,228.29,1015.86,244.62,1012.06,259.63Z"/><path class="cls-48" d="M1069.31,138.55q-21.68,8.05-43.33,16.11l-11.22-40.61Z"/><path class="cls-49" d="M1173,121.46q3.59-12.3,7.18-24.59l22,4.73-19.44,21.23h46.54l17.14,1.39c-1.28,1.72-2.57,3.43-4.11,5.49L1278,144.4c-.24,3.56-.48,7.11-.74,11l7.11,5.39-5.05,4.61-23.47-7.32,7.51-8.73-39.78-10.24,11.28,28.22c-3.83-.5-7.75-.66-11.48-1.58-18.75-4.62-37.45-9.44-56.17-14.19l-2.53-.08c5.14-10.48,10.27-21,15.6-31.84a11.4,11.4,0,0,0-2.66,0C1176.09,120.21,1174.56,120.86,1173,121.46Z"/><path class="cls-50" d="M1167.25,151.6c18.72,4.75,37.42,9.57,56.17,14.19,3.73.92,7.65,1.08,11.48,1.58L1318.49,195l-17.22,22.76-93.71-31.47-1.52-.17Z"/><path class="cls-51" d="M1278,144.4l-35.76-14.69c1.54-2.06,2.83-3.77,4.11-5.49l60.83,20.4-1.69,5.55Z"/><path class="cls-52" d="M1571.46,529.09c3.11,16.09,6.21,32.18,9.27,48-.63,2.6-1.17,4.79-1.78,7.32l7,2.19-10,4V544.69l-2.57-.08q-6,40.38-12,80.77l-13-4.23-18.66-14.47,1.56-.64c1.51-20.52,2.7-36.67,4-53.6l-7.53,1.21-13.9-4.62,7.5-17,22.78-31.94q-3.93,33.65-7.85,67.3l3.14.66q7.56-26.87,15.13-53.73Z"/><path class="cls-11" d="M1529.75,606.68l-34.68,30.52-11.56-13.1,10.86.88c1.81-15.07,3.63-30.15,5.69-47.33-6,1.89-8.37,2.93-10.88,3.38-10.44,1.91-20.92,3.63-31.38,5.43l23.2-43.17,2.7-7.23q-2.07-51.84-4.16-103.67l27.22,28.85c-24.09,36.22-15.06,74.8-8.63,115.64l15.7-27.85,13.9,4.62,7.53-1.21c-1.25,16.93-2.44,33.08-4,53.6Z"/><path class="cls-53" d="M1513.83,549l-15.7,27.85c-6.43-40.84-15.46-79.42,8.63-115.64,2-5.09,4-10.18,7.81-20,9.48,18.68,16.91,33.34,26.82,52.88L1508,463.27c5,25.65,9.15,47.2,13.33,68.75Z"/><path class="cls-54" d="M1479.54,432.39q2.09,51.84,4.16,103.67-2.9-18-5.8-36c0-1.42.08-2.83.11-4.25l-2.61-49V419.22l1.75-.18Q1478.35,425.72,1479.54,432.39Z"/><path class="cls-55" d="M1554.53,514.31Q1547,541.18,1539.4,568l-3.14-.66q3.93-33.64,7.85-67.3Q1549.32,507.21,1554.53,514.31Z"/><path class="cls-46" d="M1502.52,445.51l-21.45-30.36,3.24-2.44,23.45,28.78Z"/><path class="cls-37" d="M784.64,101.17l1.34.19,22.48,21.18,63.47,20.38c0,.11-.3-2.42-.68-5.52l4-4.55,4.42,8.66L879.6,153,789,144.47l-97.71,13.29c-1.2,5.31-2,9-2.88,12.69-.3-2.48-.6-4.95-1.32-10.83L653.86,186l-21.7,5.94-12,3.05-14.67-9.46Z"/><path class="cls-56" d="M513,272.45c4.77-11.95,9.16-24.07,14.44-35.79,3.59-8,8.42-15.44,12.69-23.13L582,220.79q-1.62,2.81-3.26,5.59l-7.13,10.1h-6.21c1.29,5.07,2.43,9.57,3.11,12.25-10.76,22.17-21,43.2-31.19,64.22,6-17.74,12-35.48,18-53.1-19.89,13.84-22.75,33.57-18.11,55.83l-1.33,13q-3-9.41-6-18.8c.51-1.78,2-4.1,1.39-5.26C525.41,293.81,519.15,283.16,513,272.45Z"/><path class="cls-57" d="M584.84,217.75l14.08-9.89,1.51,1.41,9.11,3C590.81,245.8,572.45,278.67,551.6,316l41.79,37.22-15.8,17.36-37.06,5.51-.67-2.56q-1.89-7.25-3.8-14.48,2.06-7.21,4.09-14.42c18.33-41.78,36.66-83.57,55.23-125.88Z"/><path class="cls-26" d="M600.43,209.28l-1.51-1.42,33.24-16,21.7-5.94,27.19,24.7-70.46-1.45Z"/><path class="cls-34" d="M584.84,217.75l10.54,1c-18.57,42.31-36.9,84.1-55.23,125.88l5.7-40.4C560,280.35,574,256.46,588,232.77l-9.28-6.39q1.63-2.79,3.26-5.59C583,219.78,583.9,218.77,584.84,217.75Z"/><path class="cls-35" d="M691.2,99.77l-19-3.78,4.59-3.3L749.62,81l.36,1.53Z"/><path class="cls-40" d="M507.09,507.36l-1.39,0-35.63-8.9,22.2-61.92-6.9,1.59-2.8-1.5,15.4-7.89L438.7,413.93c-.51-7.44-.95-13.77-1.37-20l-6.59-3.31-5.54-10.77c-3.92,8-8.38,13-8.46,18.13-.2,11.8,1.71,23.63,2.76,35.45L390.42,417.8l-20.18-40.3c10-23.56,17.95-48.39,30.91-70.21,7.66-12.9,23.3-21.06,38.64-34.16-.73,8-.92,10-1.27,13.75l66.38-17-10.67,10.06L404.8,350.24l-24.08,18.07,1.56,2.12L404.85,356l11.57-5.82c-4.52,6.33-9,12.67-14.77,20.72l76.57-36.44,5.91,1.28c-2.13,4.8-3.33,10.38-6.56,14.27-11.13,13.42-23,26.26-40.61,46.18l55.63,16.15.12,2.8-.07,4.34,6.23,9.84c-7.36,19.34-15.19,39.89-23.23,61l32.9,11.39C508.06,503.57,507.57,505.47,507.09,507.36Z"/><path class="cls-58" d="M513,272.45c6.15,10.71,12.41,21.36,18.3,32.21.63,1.16-.88,3.48-1.39,5.26l-4.18,1.54-82,25.91h-7.21l60.37-56.19Z"/><path class="cls-59" d="M496.89,281.17l-60.37,56.19-20.1,12.79L404.85,356c0-1.91,0-3.82-.05-5.73l89.43-70.31Z"/><path class="cls-42" d="M875.27,132.85l-4,4.55c.38,3.1.69,5.63.68,5.52l-63.47-20.38L786,101.36l83.63-5.88Q872.45,114.17,875.27,132.85Z"/><path class="cls-60" d="M875.27,132.85q-2.82-18.67-5.66-37.37l10,.09L889.87,97q-5.1,22.25-10.18,44.48Z"/><path class="cls-61" d="M929.89,278.34l1.47,4.3c-5.81,9.2-11.85,18.27-17.35,27.65-4.64,7.93-8.66,16.23-13,24.37q-10.15-51.89-20.3-103.75c.09-1.95.19-3.89.29-5.84Z"/><path class="cls-62" d="M879.69,141.51q5.09-22.24,10.18-44.48,13.56,28,27.11,56l-5.88,14.36-19.46,18.68c-.65-1.89-1.3-3.79-1.94-5.68L881,157.63c-.46-1.54-.91-3.08-1.37-4.63Z"/><path class="cls-47" d="M891.64,186.05l19.46-18.68-30.05,57.7c-.1,2-.2,3.89-.29,5.84-1.43,2.08-3.4,4-4.21,6.27-8.21,23.27-16.23,46.62-24.3,69.94q7.9-36.75,15.82-73.5l23.31-46.08C891.46,187,891.55,186.54,891.64,186.05Z"/><path class="cls-9" d="M901.06,334.66c4.29-8.14,8.31-16.44,13-24.37,5.5-9.38,11.54-18.45,17.35-27.65l1.36.06q26.67,46.77,53.32,93.54l-77.51,0Z"/><path class="cls-63" d="M986,376.24q-26.65-46.77-53.32-93.54l35.84-11.63q3.62,17.44,7.25,34.88,5.69,31.73,11.38,63.45C986.81,371.68,986.42,374,986,376.24Z"/><path class="cls-64" d="M435.06,481.43c1.53,10.1,5.66,20.68,3.95,30.2-2.32,12.92-9.12,25-14,37.48l-33.42-19.35Z"/><path class="cls-40" d="M361.78,455.5l52-22,5.3,6.37q7.4,19.25,14.77,38.51Z"/><path class="cls-65" d="M433.84,478.38q-7.38-19.26-14.77-38.51l3.41-4.88,38.46,11.91L442.3,471.32Z"/><path class="cls-66" d="M442.3,471.32l18.64-24.42,21.63-10.24,2.8,1.5Z"/><path class="cls-14" d="M482.57,436.66,460.94,446.9,422.48,435l-3-1.52c-1.05-11.82-3-23.65-2.76-35.45.08-5.09,4.54-10.11,8.46-18.13l5.54,10.77,6.59,3.31c.42,6.19.86,12.52,1.37,20L498,428.77Z"/><path class="cls-37" d="M978.84,625.39c-12.71-14.87-25.42-29.74-37.76-44.2l-175.14,8.22,103.58-28.83,69.1,18.61c1-1,2-1.89,3-2.83l21.48-15.72c4.61-.9,9.65-.89,13.75-2.85,26-12.44,51.92-25,77.57-38.19,10.21-5.22,19.65-11.93,29.45-18l7.19,2.86q4.23,5.08,8.44,10.19c-1,2.53-3,5.14-2.84,7.59,1,12.72,2.53,25.4,3.83,37.57l-24.09,6,4,9.7-16.67-12-83.45,61.87Z"/><path class="cls-43" d="M869.52,560.58,765.94,589.41l-7.36-2.95,27.73-46.1q2.82-3.51,5.63-7l4.18,2.83c2.83,1.56,5.5,3.65,8.52,4.59C826.23,547.49,847.89,554,869.52,560.58Z"/><path class="cls-67" d="M791.94,533.32q-2.81,3.52-5.63,7l-11.68,4.47-50.53-5.57-7-4.9,17.27-3.56L704.49,498l14-3.64,4.31,0c5.71.4,11.45.61,17.13,1.24,33.34,3.7,51.55-5.53,59.2-30.12q2.86,29.64,5.74,59.29Z"/><path class="cls-19" d="M724.1,539.26l50.53,5.57-87.92,60.26c.53-1.37,1-2.75,1.57-4.13L721,576.33l13.4-9.85,3.88-3q-.24-2.93-.47-5.85Z"/><path class="cls-68" d="M1056.56,420.74,1101,428l44.73-1.35q-5.75,22.29-11.47,44.56l-11.66-2.89-18-35.3-35.08,45.5-44.35,14.13h6.82l.3.64-5.77,1.25-53.36,25.75-15.77,7.26L946.73,524l72.07-34.29L984.8,469,912,503.21l-2.42-.34Z"/><path class="cls-69" d="M1282.29,363.54l-5.69-.21-100.73,8.51c.75-10.65,2-21.3,2.14-32,.23-14.24-.35-28.48-.58-42.72.46-2.45.93-4.91,1.39-7.36l32.54-34.41,12,2.74-10,0v60.13L1259.3,323,1278,301.35l-12.93,22.93-2.37.86,1,2.06q9.32,17.83,18.62,35.66Z"/><path class="cls-65" d="M1325.54,354.66l54.45-20q-18.71,46.32-37.39,92.66c-1,2.62-1.77,5.36-2.65,8q-22.35,19.39-44.72,38.77l-5.49,3.17q-.06-8.1-.13-16.2c1.83-2.23,4.6-4.19,5.35-6.75,7.44-25.08,14.54-50.26,21.73-75.41l5.49-22.66Z"/><path class="cls-50" d="M1289.74,477.32l5.49-3.17c16.93-5.21,33.8-10.68,50.82-15.58,18-5.18,36.08-9.83,54.14-14.7l-96.31,100.82-1.42,1.35c-1-2.58-2.43-5.09-2.91-7.77-3.46-19.42-6.73-38.87-10.06-58.31C1289.57,479.08,1289.66,478.2,1289.74,477.32Z"/><path class="cls-70" d="M1134.21,471.18q5.73-22.28,11.47-44.56l82,17.41c0,.43,0,.87-.06,1.31L1190.39,484Z"/><path class="cls-71" d="M1175.87,371.84l100.73-8.51-71.23,30.29c-.08-.15-.15-.29-.22-.44L1149.24,418c.94-12.71,2.18-29.29,3.41-45.87l.29-.27Z"/><path class="cls-59" d="M1289.49,480c3.33,19.44,6.6,38.89,10.06,58.31.48,2.68,1.91,5.19,2.91,7.78l-2.88,3c-3.39-1.44-6.67-3.3-10.19-4.25-20.09-5.44-40.24-10.66-60.36-16q7.17-15.83,14.33-31.67l17.66-4.51,1.29,3.84-18.39,6.63,4.16,10.23Z"/><path class="cls-72" d="M1243.36,497.18Q1236.19,513,1229,528.85l-2.78.06L1190.39,484l37.27-38.67q8,23.18,16.07,46.35C1243.6,493.52,1243.48,495.35,1243.36,497.18Z"/><path class="cls-71" d="M1128.25,315.56q3.6-11.52,7.18-23l7.73,9.32,31.31,2.4q-10.76,33.81-21.53,67.64l-.29.27Q1140.46,343.85,1128.25,315.56Z"/><path class="cls-42" d="M1316.69,379c-7.19,25.15-14.29,50.33-21.73,75.41-.75,2.56-3.52,4.52-5.35,6.75l-7.32-97.58,0-.67Z"/><path class="cls-73" d="M1243.73,491.69q-8-23.18-16.07-46.35c0-.44,0-.88.06-1.31q23-33.87,46-67.75c.78-1.16,1.47-2.38,6.1-9.88C1266.48,412.79,1255.1,452.24,1243.73,491.69Z"/><path class="cls-74" d="M1101.27,380.5c.09-3.31.17-6.62.26-9.93h50.93L1105,424.32C1103.63,408.41,1102.45,394.45,1101.27,380.5Z"/><path class="cls-75" d="M1056.56,420.74,909.61,502.87l-1.2.07c-.29-6.58-1.08-13.18-.77-19.73,1-21.75,2.44-43.48,3.71-65.22l-2.82-41.77,77.51,0c.38-2.28.77-4.56,1.15-6.84l3.57,7.61c6.84-30.61,13.33-59.63,19.81-88.64L1065,353.3l-95.8,36c.68,2.55,1.37,5.1,2,7.65,9.88,0,19.79-.57,29.61.12,19.06,1.34,38.07,3.4,57.1,5.15Q1057.28,411.48,1056.56,420.74Z"/><path class="cls-76" d="M1010.57,288.37c-6.48,29-13,58-19.81,88.64l-3.57-7.61Q981.5,337.68,975.81,306c.58-11.56-2.27-24.9,2.58-34.23,6.73-13,19.24-22.91,32.15-37.36v49.81Z"/><path class="cls-77" d="M1058,402.19c-19-1.75-38-3.81-57.1-5.15-9.82-.69-19.73-.12-29.61-.12-.68-2.55-1.37-5.1-2-7.65l95.8-36Q1061.5,377.75,1058,402.19Z"/><path class="cls-78" d="M1174.47,304.24l-31.31-2.4-7.73-9.32,14.82-50.16,1.16-.06q13.71,23.74,27.41,47.5c-.46,2.45-.93,4.91-1.39,7.36Z"/><path class="cls-79" d="M1178.82,289.8q-13.69-23.76-27.41-47.5l34.75-48.88h-46.52l-.39-3.26,66.79-4.08,1.52.17-16.32,4.8,55.13,13.9c16.43,22,33.41,44.75,50.4,67.49l-.09.24-73.29-14.55-12-2.74Z"/><path class="cls-80" d="M1173,121.46c1.54-.6,3.07-1.25,4.64-1.75a11.4,11.4,0,0,1,2.66,0c-5.33,10.88-10.46,21.36-15.6,31.84l-29.1,34.69q13.67-29.52,27.35-59Z"/><path class="cls-81" d="M737.84,557.66q.23,2.93.47,5.85l-35.67,5.74L676.73,572l-2.81,0-15.44-25.73c-28.87,18.3-51.93-2.05-76.46-6-.11-.94-.21-1.88-.32-2.83q-.09-7.95-.19-15.9c26.6,5.52,53.43,23.1,82.15.34a15.76,15.76,0,0,0,3.11,3.84c15.07,13.67,15.64,50.06,51.14,32.23C723.27,555.37,731.13,557.67,737.84,557.66Z"/><path class="cls-82" d="M581.51,521.66q.11,8,.19,15.9l-6.13-10.22c-1.89,7.64-2.91,11.73-4,15.95l-35.78-4.18c0-1.48,0-3-.05-4.44q2.15-5,4.3-10.1l0,0,23.33,5.48c-.25-1.68-.51-3.36-.76-5l17.81-4.9,1.25.2A5.73,5.73,0,0,1,581.51,521.66Z"/><path class="cls-59" d="M535.79,534.67c0,1.48,0,3,.05,4.44l-4.2,11.07c-6.11-16.25-10.91-29-15.59-41.49l-9-1.33c.48-1.89,1-3.79,1.45-5.69l2.88-7.22,1.34-.11c.92,3.1,1.84,6.2,2.73,9.24h7.27Z"/><path class="cls-5" d="M1265.09,324.28,1278,301.35l18.66-28.67.09-.24,41.68,43.32c-.14.86-.27,1.71-.41,2.57Z"/><path class="cls-83" d="M1351.45,256.45c-.49,12.7-.92,25.4-1.54,38.1a65.52,65.52,0,0,1-1.4,8.25l-5.59-12.75-34.62-48.93Z"/><path class="cls-84" d="M1342.92,290.05l5.59,12.75,3.12,8.75-24.77,40q5.6-16.61,11.18-33.2c.14-.86.27-1.71.41-2.57Z"/><path class="cls-46" d="M1478,495.81c0,1.42-.07,2.83-.11,4.25q-15.14,35.28-30.26,70.57l-12.51,13.27-15.56-14.4,2.74-6.53c-2-4.15-3.73-7.62-5.45-11.15l-9.45-1.34,33.94-39.75-3.72-3.37,4.32-1-8.51-14.91,12.74,4.59q.51,6.59.6,7.78l19.29-14.67c-24.37-28.42-68.94-49.22-57.12-101.4l5.42-.41,1.2,9a31.74,31.74,0,0,1,4.78,4.13c1.49,1.81,2.39,4.11,8.07,3.56Z"/><path class="cls-85" d="M1404.35,439.42q1.5,2.31,3,4.62-2.67,24.61-5.35,49.22c-.11.83-.21,1.67-.31,2.5L1389,510.24c-2.46,1.62-5.27,2.88-7.33,4.91q-29.65,29-59.08,58.31c.48-1.89,1-3.77,1.45-5.66,10.9-16.86,22.06-33.56,32.63-50.63,15.68-25.29,31-50.83,46.39-76.27Z"/><path class="cls-86" d="M1404.35,439.42l-1.27,1.48-2.89,3c-18.06,4.87-36.17,9.52-54.14,14.7-17,4.9-33.89,10.37-50.82,15.58q22.37-19.38,44.72-38.77Z"/><path class="cls-87" d="M1402,493.26q2.67-24.6,5.35-49.22,13.07,23.7,26.11,47.4l8.51,14.91-4.32,1Z"/><path class="cls-15" d="M1338,318.33q-5.6,16.59-11.18,33.2l-1.32,3.13-3.36,1.64-58.46-29.1-1-2.06,2.37-.86Z"/><path class="cls-88" d="M1447.64,570.63q15.12-35.29,30.26-70.57,2.91,18,5.8,36l-2.7,7.23L1440.58,588Q1444.11,579.3,1447.64,570.63Z"/><path class="cls-42" d="M610.59,209.22l70.46,1.45q3.66-20.11,7.33-40.22c.84-3.69,1.68-7.38,2.88-12.69L789,144.47,747.43,176,858.59,157.1C857.27,171,856.23,182,855.18,193c-6.6-1.06-13.18-2.26-19.8-3.15q-41.74-5.61-83.5-11.07l-2.2.25L754.3,274c-.78,6.21-1.56,12.42-2.64,21.11l-26-34.38c-23.79,0-48.23-.77-72.57.41-8.55.42-16.87,5.62-25.29,8.63L615.19,258c10.35,30.11,19.49,56.73,28.58,83.17l8.54.57-30.18,5.78-22.28-9.74c0-14.82-.19-29,.06-43.12.17-10.07.2-20.23,1.57-30.18C604,246,607.5,227.61,610.59,209.22Z"/><path class="cls-89" d="M855.18,193c1.05-11,2.09-22,3.41-35.91L747.43,176,789,144.47,879.6,153c.46,1.55.91,3.09,1.37,4.63-2.24,3.61-4.48,7.22-8,12.84l16.71,9.9c.64,1.89,1.29,3.79,1.94,5.68l-.27,1.48-34.87,5.89Z"/><path class="cls-90" d="M688.38,170.45q-3.66,20.12-7.33,40.22L653.86,186l33.2-26.35C687.78,165.5,688.08,168,688.38,170.45Z"/><path class="cls-91" d="M525.73,311.46l4.18-1.54q3,9.4,6,18.8l0,14.42c-.08,1.87-.16,3.73-.25,5.6l-.85,4.28-38,40.43-2.31-.11c4.93-11.62,10.53-23,14.43-35,1.25-3.84-2-9.14-3.23-13.78l-14.35-7.41c1.42-2.77,2.11-6.67,4.38-8.12C505.42,322.78,515.66,317.25,525.73,311.46Z"/><path class="cls-20" d="M578.75,226.38l9.28,6.39c-14,23.69-28.08,47.58-42.18,71.46l-5.73,17.3c11.51-27,23-54,35-82l-3.45-3.05Z"/><path class="cls-92" d="M571.62,236.48l3.45,3.05c-11.94,28-23.44,55-35,82q-2.14,10.8-4.28,21.61l0-14.42q.68-6.51,1.33-13c0-.91.09-1.82.13-2.73,10.22-21,20.43-42.05,31.19-64.22-.68-2.68-1.82-7.18-3.11-12.25Z"/><path class="cls-91" d="M537.33,313c0,.91-.09,1.82-.13,2.73-4.64-22.26-1.78-42,18.11-55.83C549.35,277.47,543.34,295.21,537.33,313Z"/><path class="cls-20" d="M610.59,209.22c-3.09,18.39-6.56,36.74-9.11,55.21-1.37,9.95-1.4,20.11-1.57,30.18-.25,14.15-.06,28.3-.06,43.12l22.28,9.74-25.93,7.17-2.81-1.42L551.6,316c20.85-37.33,39.21-70.2,57.94-103.76l-9.11-3Z"/><path class="cls-43" d="M593.39,353.22l2.81,1.42,20.13,43.23L599.07,441l-3,1.68L566.64,416.8c9.2,17.8,14.67,28.38,21.38,41.34,3.68-6,5.26-8.63,6.83-11.22L615,461.16l-24.76-2.29c-.74,1.38-1.72,3.24-2.71,5.1L559,417.45c1.91-12.43,2.81-18.22,4.14-26.86l-13.29,7.5q-1.2-3-2.39-6.06l30.09-21.45Z"/><path class="cls-93" d="M494.41,393.34l2.32.11,43.13-19.92c.23.85.45,1.7.67,2.56l5.34,13.12L527.23,396l16.61,8.06-8,34.11h-1.45c-2.09-3.32-4.18-6.64-6.72-10.7l6.15-20.78-38.38-5.8c-.39-.11-.77-.24-1.15-.38l-.51-5.4c.07-.52.14-1,.2-1.55Z"/><path class="cls-69" d="M539.86,373.53l-43.13,19.92,38-40.43.85-4.28c.16,3.44.32,6.87.47,10.31Q538,366.28,539.86,373.53Z"/><path class="cls-17" d="M545.87,389.21l-5.34-13.12,37.06-5.51L547.5,392C547,391.09,546.41,390.15,545.87,389.21Z"/><path class="cls-82" d="M536.06,359.05c-.15-3.44-.31-6.87-.47-10.31.09-1.87.17-3.73.25-5.6q2.14-10.8,4.28-21.61l5.73-17.3-5.7,40.4Q538.11,351.83,536.06,359.05Z"/><path class="cls-94" d="M493.74,395.12l.51,5.4c.23,3.44.46,6.88.66,9.84l22.27,6.43L501.54,460l20,8.47q-.81,3.55-1.6,7.11-1.41,2.21-2.8,4.41l-25.38-7.86c6.32-17.89,12.15-34.44,18.29-51.84l-17.32-5.18-.12-2.8L461,389.26l25.89-37.54q1.45,11.53,2.89,23.08l-17.44,18.31Z"/><path class="cls-57" d="M486.93,351.72,461,389.26l31.55,23.05L437,396.16c17.64-19.92,29.48-32.76,40.61-46.18,3.23-3.89,4.43-9.47,6.56-14.26l4.71,5.62Q487.9,346.53,486.93,351.72Z"/><path class="cls-68" d="M416.42,350.15l20.1-12.79h7.21l34.49-2.94-76.57,36.44C407.39,362.82,411.9,356.48,416.42,350.15Z"/><path class="cls-80" d="M492.71,415.11,510,420.29c-6.14,17.4-12,33.95-18.29,51.84L517.12,480q-2.18,7.17-4.36,14.35l-1.34.11L483.23,481c6.82-18.68,13.8-37.82,21.06-57.72l-11.65-3.87Z"/><path class="cls-95" d="M492.64,419.45l11.65,3.87c-7.26,19.9-14.24,39-21.06,57.72l28.19,13.41-2.88,7.22-32.9-11.39c8-21.1,15.87-41.65,23.23-61Z"/><path class="cls-96" d="M478.22,334.43l-34.49,2.94,82-25.91c-10.07,5.79-20.31,11.32-30.09,17.56-2.27,1.45-3,5.35-4.38,8.12l-2.42,4.2-4.71-5.63Z"/><path class="cls-68" d="M404.8,350.24c0,1.91,0,3.82.05,5.73l-22.57,14.46-1.56-2.12Z"/><path class="cls-97" d="M908.53,376.22,911.35,418,880.86,449.7Q865,382.08,849.22,314.44l3-7.32c8.07-23.32,16.09-46.67,24.3-69.94.81-2.3,2.78-4.19,4.21-6.27q10.14,51.87,20.3,103.75Z"/><path class="cls-42" d="M889.7,180.37,873,170.47c3.5-5.62,5.74-9.23,8-12.84Z"/><path class="cls-98" d="M852.25,307.12l-3,7.32-46-14.65q-10.68-33.1-21.37-66.21c5.13,1.1,10.37,1.8,15.35,3.36,23.1,7.23,45.92,10.23,68-3.27h2.92l0,0Z"/><path class="cls-28" d="M856.5,193.42l34.87-5.89q-11.64,23.06-23.3,46.09l0,0Q862.32,213.54,856.5,193.42Z"/><path class="cls-13" d="M1190.39,484l35.86,44.9c-3.2,0-6.49.4-9.59-.19q-62.84-12-125.64-24.22l-7.19-2.86-51.92-9h-6.82l44.35-14.13,53.11-10.2,11.66,2.89Z"/><path class="cls-99" d="M1091,504.5q62.82,12.15,125.64,24.22c3.1.59,6.39.15,9.59.19l2.78-.06c20.12,5.3,40.27,10.52,60.36,16,3.52,1,6.8,2.81,10.19,4.25l-2.85,0-46,5.76-96.37,12.95-2.68-.21-52.19-52.89Z"/><path class="cls-100" d="M1125.63,618.14c-16.56-13.51-33.27-26.85-49.58-40.65-4.7-4-8.28-9.29-12.36-14l16.67,12-4-9.7,24.09-6c-1.3-12.17-2.85-24.85-3.83-37.57-.19-2.45,1.84-5.06,2.84-7.59l52.19,52.89c-3.47,6.26-7.12,12.43-10.36,18.8C1135.93,596.9,1130.84,607.55,1125.63,618.14Z"/><path class="cls-29" d="M869.52,560.58c-21.63-6.58-43.29-13.09-64.88-19.84-3-.94-5.69-3-8.52-4.59l90.49-11.4c2.5,2.85,4.88,5.8,7.51,8.52q22.2,23,44.5,45.92Z"/><path class="cls-52" d="M1031.91,492.62l51.92,9c-9.8,6-19.24,12.74-29.45,18-25.65,13.14-51.58,25.75-77.57,38.19-4.1,2-9.14,2-13.75,2.85q33.78-31,67.49-62.05c1.18-1.1,1.13-3.52,1.66-5.33Z"/><path class="cls-101" d="M1032.21,493.26c-.53,1.81-.48,4.23-1.66,5.33q-33.62,31.17-67.49,62.05l-21.48,15.72-1.77-38.81,6-5.66,11.53-4.37,15.77-7.26,53.36-25.75Z"/><path class="cls-5" d="M939.81,537.55l1.77,38.81c-1,.94-2,1.88-3,2.83q-22.26-23-44.5-45.92c-2.63-2.72-5-5.67-7.51-8.52l4.8-.25,5.42,1.1,5.88,2.16Z"/><path class="cls-81" d="M891.41,524.5l-4.8.25-90.49,11.4-4.18-2.83,12.91-8.61Z"/><path class="cls-43" d="M722.78,494.3l-4.31,0-15.39-9.22,5.8-2.68c.12-2.62.23-4.74.35-7.28l30.33-31.75-111-6.74c4.92-11.34,9.32-21.47,13.71-31.6l59.32,9.85L708.48,359c3.74-6.5,6.35-14.14,11.45-19.28,13.3-13.39,27.7-25.69,41.66-38.43l2.89,1.55,1.46,7.12c0,4.42-.52,8.91,0,13.26,1.69,13.85,3.76,27.66,5.68,41.48-3.24-13.49-6.49-27-9.85-40.93l-7.84.53-11.56,23.52c-.36.33-5.29,4.78-12.9,11.63l39.31,23.94c.79,10,1,20.08,2.51,29.95,2.7,17.16,1.24,31.28-14.37,43.48C743.81,467.1,734,481.65,722.78,494.3Z"/><path class="cls-102" d="M891.41,524.5l-86.56.21q-2.86-29.64-5.74-59.29c-2.11-14.16-4.37-28.3-6.29-42.48-3.79-28-7.39-56-11.07-84l53.35,71.7c-3.84,22.88-7.68,45.75-11.92,71.05l82.05,21.46c.09.42.19.83.31,1.24q-1.26,9.14-2.51,18.28l-6.2,2.92Z"/><path class="cls-75" d="M781.75,339c3.68,28,7.28,56,11.07,84,1.92,14.18,4.18,28.32,6.29,42.48-7.65,24.59-25.86,33.82-59.2,30.12-5.68-.63-11.42-.84-17.13-1.24,11.26-12.65,21-27.2,34.16-37.44,15.61-12.2,17.07-26.32,14.37-43.48-1.56-9.87-1.72-20-2.51-29.95q1.43-9.35,2.84-18.69c-1.92-13.82-4-27.63-5.68-41.48-.54-4.35,0-8.84,0-13.26Z"/><path class="cls-75" d="M642.23,405.06c-4.39,10.13-8.79,20.26-13.71,31.6l111,6.74-30.33,31.75c-.12,2.54-.23,4.66-.35,7.28l-5.8,2.68,15.39,9.22-14,3.64L734.4,530.8l-17.27,3.56L702.64,526l9.71-5L696.1,502.35c.32-2.8.55-4.87,1-8.74l-60.64-15-7-4.53c-1.51-1.85-3-3.71-4.52-5.57l73.61,20.06.73-2.4-43.92-19.06,38-3.31c2.71-5.25,4.85-9.4,8-15.41-3.87-1.42-7.52-3.85-11.23-3.93-20.56-.48-41.13-.11-61.69-.63-9.79-.26-19.55-1.86-29.32-2.85l17.26-43.09,3.33.19Z"/><path class="cls-103" d="M702.64,526l14.49,8.32,7,4.9,13.74,18.4c-6.71,0-14.57-2.29-19.93.41-35.5,17.83-36.07-18.56-51.14-32.23a15.76,15.76,0,0,1-3.11-3.84c-28.72,22.76-55.55,5.18-82.15-.34a5.73,5.73,0,0,0,.24-1.3Q581,511,580.33,501.6c0-1.46.06-2.93.08-4.4l3.08,8.61c20.91,2.62,42.11,6,63.43,7.26,3.94.23,8.39-8.44,12.6-13L687,517.22Z"/><path class="cls-80" d="M896.83,525.6l6.2-2.92q1.26-9.13,2.51-18.28l2.87-1.46,1.2-.07,2.42.34L984.8,469l34,20.72L946.73,524l10.58,3.52-11.53,4.37-43.07-4.13Z"/><path class="cls-104" d="M1122.55,468.29l-53.11,10.2,35.08-45.5Z"/><path class="cls-80" d="M1026.44,494.51l-53.36,25.75Z"/><path class="cls-29" d="M1296.68,272.68,1278,301.35,1259.3,323l-45.91-64.9,10,0Z"/><path class="cls-6" d="M1213.39,258.09,1259.3,323l-45.91-4.77Z"/><path class="cls-105" d="M1263.72,327.2l58.46,29.1L1316.69,379l-34.35-16.09Z"/><path class="cls-106" d="M1174.47,304.24l3-7.08c.23,14.24.81,28.48.58,42.72-.18,10.66-1.39,21.31-2.14,32l-22.93,0Q1163.71,338.05,1174.47,304.24Z"/><path class="cls-59" d="M1324.06,567.8l-5.87-5.57-3.78,7.12V556.91l-10.53-12.21,96.31-100.83,2.89-3c-15.44,25.44-30.71,51-46.39,76.27C1346.12,534.24,1335,550.94,1324.06,567.8Z"/><path class="cls-107" d="M908.41,502.94l-2.87,1.46c-.12-.41-.22-.82-.31-1.24q-12.86-26.1-25.72-52.21l1.35-1.25L911.35,418c-1.27,21.74-2.69,43.47-3.71,65.22C907.33,489.76,908.12,496.36,908.41,502.94Z"/><path class="cls-23" d="M580.33,501.6q.7,9.38,1.42,18.76l-1.25-.2-7-13.92c-9.45,4.29-15.71,6.74-21.56,9.93-4.23,2.3-7.92,5.59-11.85,8.44l0,0c-3.79-7.93-7.57-15.86-11.62-24.35l-6.17-1.78c-.81-7.77-1.59-15.32-2.38-22.86l1.59-7.11,5.58-10.2,2.21,34.56c4.9,7.27,8.45,12.56,12.37,18.38l6.91-9.61Z"/><path class="cls-108" d="M540.12,524.61c3.93-2.85,7.62-6.14,11.85-8.44,5.85-3.19,12.11-5.64,21.56-9.93l7,13.92-17.81,4.9c.25,1.67.51,3.35.76,5Z"/><path class="cls-109" d="M519.92,475.58c.79,7.54,1.57,15.09,2.38,22.86l6.17,1.78c4,8.49,7.83,16.42,11.62,24.35q-2.16,5.05-4.3,10.1l-13-31.09h-7.27c-.89-3-1.81-6.14-2.73-9.24q2.18-7.18,4.36-14.35Q518.51,477.79,519.92,475.58Z"/><path class="cls-45" d="M1440.58,588l-4.49,5.7-84.7,50.44-26.16-52.2L1389,510.24l12.65-14.48-3.76,64.72,9.5-10,9.45,1.34c1.72,3.53,3.42,7,5.45,11.15l-2.74,6.53,15.56,14.4,12.51-13.27Q1444.1,579.3,1440.58,588Z"/><path class="cls-106" d="M1407.41,550.48l-9.5,10,3.76-64.72c.1-.83.2-1.67.31-2.5l35.65,14.1,3.72,3.37Z"/><path class="cls-110" d="M1389,510.24l-63.79,81.68-40,19.11L1314,582.41l8.58-8.95q29.51-29.18,59.08-58.31C1383.75,513.12,1386.56,511.86,1389,510.24Z"/><path class="cls-111" d="M627.79,269.74c8.42-3,16.74-8.22,25.29-8.64,24.34-1.18,48.78-.41,72.57-.41l26,34.38c1.08-8.69,1.86-14.9,2.64-21.11q.23,13,.44,26l-59.08,34.73-1.66-.16c-1.94-2.64-3.54-5.63-5.88-7.85Q658.08,298.05,627.79,269.74Z"/><path class="cls-112" d="M694,334.48l1.66.16q-14.45,23-28.88,46L664,386.17l-44.33,11.89-3.33-.19L596.2,354.64l25.93-7.17,30.18-5.78Z"/><path class="cls-102" d="M754.74,299.91q-.22-13-.44-26L749.68,179q16.1,27.27,32.18,54.54,10.68,33.1,21.37,66.21l-41.27.36Z"/><path class="cls-113" d="M781.86,233.58Q765.78,206.31,749.68,179l2.2-.25L865.2,233.67c-22.07,13.5-44.89,10.5-68,3.27C792.23,235.38,787,234.68,781.86,233.58Z"/><path class="cls-3" d="M694,334.48l-41.69,7.21-8.54-.57c-9.09-26.44-18.23-53.06-28.58-83.17l12.6,11.78c20.13,18.95,40.3,37.85,60.33,56.9C690.46,328.85,692.06,331.84,694,334.48Z"/><path class="cls-21" d="M865.2,233.67,751.88,178.79q41.75,5.53,83.5,11.07c6.62.89,13.2,2.09,19.8,3.15l1.32.41q5.81,20.12,11.62,40.25Z"/><path class="cls-106" d="M505.61,344.55c1.21,4.64,4.48,9.94,3.23,13.78-3.9,12-9.5,23.39-14.43,35l-.47.23q-1.4-9.37-2.8-18.73Q498.39,359.69,505.61,344.55Z"/><path class="cls-16" d="M505.61,344.55q-7.23,15.15-14.47,30.29l-1.32,0q-1.44-11.54-2.89-23.08,1-5.19,1.91-10.38l2.42-4.2Z"/><path class="cls-114" d="M659.52,500.07c-4.21,4.56-8.66,13.23-12.6,13-21.32-1.22-42.52-4.64-63.43-7.26l-3.08-8.61c-11.65-28.08-23.38-8.28-37.76,2.21-2.37-8.45-5.5-15.44-6.1-22.65-1.06-12.79-.58-25.71-.75-38.58l8-34.11L527.23,396l18.64-6.8c.54.94,1.08,1.88,1.63,2.82q1.18,3,2.39,6.06l.42,5.54c-.77,35.93,27.26,72.74,58.67,79.72C626.21,487.18,642.7,494.39,659.52,500.07Z"/><path class="cls-85" d="M599.07,441c9.77,1,19.53,2.59,29.32,2.85,20.56.52,41.13.15,61.69.63,3.71.08,7.36,2.51,11.23,3.93-3.11,6-5.25,10.16-8,15.41l-38,3.31,43.92,19.06-.73,2.4-73.61-20.06L615,461.16l-20.11-14.24c.41-1.42.81-2.85,1.22-4.28Z"/><path class="cls-92" d="M550.31,403.63l-.42-5.54,13.29-7.5C561.85,399.23,561,405,559,417.45L587.49,464l.12.23c-2.54-.85-6.48-.95-7.4-2.68C570,442.37,560.2,423,550.31,403.63Z"/><path class="cls-92" d="M615,461.16l9.95,7.33c1.51,1.86,3,3.72,4.52,5.57l-41.82-9.86-.12-.23c1-1.86,2-3.72,2.71-5.1Z"/><path class="cls-66" d="M596.07,442.64c-.41,1.43-.81,2.86-1.22,4.28-1.57,2.59-3.15,5.18-6.83,11.22-6.71-13-12.18-23.54-21.38-41.34Z"/><path class="cls-115" d="M535.8,438.18c.17,12.87-.31,25.79.75,38.58.6,7.21,3.73,14.2,6.1,22.65,14.38-10.49,26.11-30.29,37.76-2.21,0,1.47,0,2.94-.08,4.4H548.58l-6.91,9.61c-3.92-5.82-7.47-11.11-12.37-18.38l-2.21-34.56c.07-.92.15-1.84.22-2.76l7-17.33Z"/><path class="cls-116" d="M527.31,455.51c-.07.92-.15,1.84-.22,2.76l-5.58,10.2-20-8.47,15.64-43.21-22.27-6.43c-.2-3-.43-6.4-.66-9.84.38.14.76.27,1.15.38L524,414.12l-9.83,29.42Z"/><path class="cls-50" d="M527.31,455.51l-13.19-12L524,414.12,495.4,400.9l38.38,5.8-6.15,20.78c2.54,4.06,4.63,7.38,6.72,10.7Z"/><path class="cls-111" d="M489.82,374.8l1.32,0q1.41,9.36,2.8,18.73c-.06.51-.13,1-.2,1.55l-21.36-2Z"/><path class="cls-31" d="M762,300.15l41.27-.36,46,14.65Q865,382.07,880.86,449.7L879.51,451l-4.33-4c.26-1.4,1.05-3,.7-4.17-18.06-61.84-46.77-115.21-111.4-139.88l-2.89-1.55A8.07,8.07,0,0,0,762,300.15Z"/><path class="cls-81" d="M902.71,527.76l43.07,4.13-6,5.66Z"/><path class="cls-117" d="M764.48,302.88c64.63,24.67,93.34,78,111.4,139.88.35,1.21-.44,2.77-.7,4.17L835.1,410.65,781.75,339,765.94,310Q765.22,306.43,764.48,302.88Z"/><path class="cls-118" d="M664,386.17l2.79-5.51,41.09-30.53c.26,3.75.43,6.33.61,8.91l-6.93,55.87Z"/><path class="cls-119" d="M708.48,359c-.18-2.58-.35-5.16-.61-8.91l-41.09,30.53q14.43-23,28.88-46l59.08-34.73,7.22.24a8.07,8.07,0,0,1-.37,1.18c-14,12.74-28.36,25-41.66,38.43C714.83,344.9,712.22,352.54,708.48,359Z"/><path class="cls-117" d="M771.64,364.74q-1.41,9.35-2.84,18.69l-39.31-23.94c7.61-6.85,12.54-11.3,12.9-11.63L754,324.34l7.84-.53C765.15,337.76,768.4,351.25,771.64,364.74Z"/><path class="cls-120" d="M664,386.17l37.56,28.74-59.32-9.85-22.57-7Z"/><path class="cls-101" d="M835.1,410.65l40.08,36.28,4.33,4q12.87,26.1,25.72,52.21L823.18,481.7C827.42,456.4,831.26,433.53,835.1,410.65Z"/><path class="cls-56" d="M587.61,464.2l41.82,9.86,7,4.53,46.24,21.81c1,3.77,2.64,10.29,4.32,16.82l-27.49-17.15c-16.82-5.68-33.31-12.89-50.54-16.72-31.41-7-59.44-43.79-58.67-79.72,9.89,19.34,19.66,38.74,29.9,57.89C581.13,463.25,585.07,463.35,587.61,464.2Z"/><path class="cls-78" d="M687,517.22c-1.68-6.53-3.36-13.05-4.32-16.82l-46.24-21.81,60.64,15c-.44,3.87-.67,5.94-1,8.74l16.25,18.71-9.71,5Z"/></svg>